<?xml version="1.0" encoding="UTF-8"?>
<svg version="1.1" xmlns="http://www.w3.org/2000/svg" width="621" height="401">
<path d="M0 0 C5.44444444 2.44444444 5.44444444 2.44444444 7 4 C7.14475933 7.8361222 7.17661508 11.32307787 6 15 C9.57154496 15.84332055 12.65221442 16.05200293 16.30859375 15.80859375 C17.30310547 15.75123047 18.29761719 15.69386719 19.32226562 15.63476562 C21.39544839 15.50348571 23.46837429 15.36808304 25.54101562 15.22851562 C35.53703124 14.66563319 35.53703124 14.66563319 40 17 C41.6796875 18.9453125 41.6796875 18.9453125 42.875 21.125 C43.28492188 21.84945313 43.69484375 22.57390625 44.1171875 23.3203125 C44.40851563 23.87460937 44.69984375 24.42890625 45 25 C46.32 24.34 47.64 23.68 49 23 C49 22.34 49 21.68 49 21 C49.66 21 50.32 21 51 21 C51.33 19.68 51.66 18.36 52 17 C65.09880775 13.81095425 65.09880775 13.81095425 70.94921875 17.09375 C73.77314518 19.15584638 75.63478354 20.8325384 76.6953125 24.22265625 C77.22857507 28.31783929 77.09232975 31.99479091 76 36 C76 36.66 76 37.32 76 38 C78.0745356 38.1490712 78.0745356 38.1490712 80 37 C81.09777451 32.2744806 81.29611096 27.454939 81.5625 22.625 C81.60568359 21.88894531 81.64886719 21.15289062 81.69335938 20.39453125 C81.79843799 18.59651932 81.89962093 16.79828042 82 15 C81.34 15 80.68 15 80 15 C80 14.34 80 13.68 80 13 C79.34 13 78.68 13 78 13 C78 10.36 78 7.72 78 5 C82.12475481 4.88248562 86.24907118 4.81231176 90.375 4.75 C91.53128906 4.71648437 92.68757813 4.68296875 93.87890625 4.6484375 C101.455299 4.56282854 107.2203913 5.56272483 114 9 C113.773125 8.071875 113.54625 7.14375 113.3125 6.1875 C113 3 113 3 114.10546875 1.32421875 C116.7758566 -0.54229977 118.77027101 -0.39874801 122 -0.375 C123.051875 -0.38273438 124.10375 -0.39046875 125.1875 -0.3984375 C128 0 128 0 129.6574707 1.19213867 C131.4892091 3.65877312 131.34353315 5.27349981 131.29296875 8.32421875 C131.28330078 9.35224609 131.27363281 10.38027344 131.26367188 11.43945312 C131.23853516 12.51130859 131.21339844 13.58316406 131.1875 14.6875 C131.17396484 15.77095703 131.16042969 16.85441406 131.14648438 17.97070312 C131.11110643 20.64763405 131.06174189 23.32356838 131 26 C131.680625 25.01 131.680625 25.01 132.375 24 C132.91125 23.34 133.4475 22.68 134 22 C134.66 22 135.32 22 136 22 C136.2475 21.38125 136.495 20.7625 136.75 20.125 C138.29297087 17.50194952 139.16664978 17.06838953 142 16 C145.2421875 15.69921875 145.2421875 15.69921875 148.875 15.6875 C150.06867188 15.67074219 151.26234375 15.65398437 152.4921875 15.63671875 C156.28579715 16.02959815 158.7225402 17.10067696 162 19 C162.66 18.01 163.32 17.02 164 16 C166.93359375 15.6015625 166.93359375 15.6015625 170.4375 15.625 C171.59121094 15.61726563 172.74492187 15.60953125 173.93359375 15.6015625 C177.25775631 16.0334919 177.94717791 16.50493006 180 19 C180.66 19 181.32 19 182 19 C182.66 18.01 183.32 17.02 184 16 C186.09375 15.671875 186.09375 15.671875 188.5 15.75 C189.69109375 15.77320313 189.69109375 15.77320313 190.90625 15.796875 C193 16 193 16 195 17 C194.814375 17.78375 194.62875 18.5675 194.4375 19.375 C193.74037734 21.97089775 193.74037734 21.97089775 195 24 C194 26 194 26 191.5 26.875 C188.8857244 27.73470219 188.8857244 27.73470219 188.0625 29.875 C187.98542257 32.49563262 188.57198695 33.82040113 190 36 C190.66 36.33 191.32 36.66 192 37 C194.33601233 38.79693256 194.94103055 39.59704207 195.375 42.5625 C195.25125 43.366875 195.1275 44.17125 195 45 C191.78169935 47.14553377 190.73213493 47.29583868 187 47.3125 C185.700625 47.33763672 185.700625 47.33763672 184.375 47.36328125 C181.5883871 46.93703947 180.73391383 46.16168863 179 44 C178.39671875 44.20496094 177.7934375 44.40992188 177.171875 44.62109375 C176.37265625 44.89050781 175.5734375 45.15992188 174.75 45.4375 C173.96109375 45.70433594 173.1721875 45.97117187 172.359375 46.24609375 C171.58078125 46.49488281 170.8021875 46.74367188 170 47 C168.95585938 47.35771484 168.95585938 47.35771484 167.890625 47.72265625 C166 48 166 48 163 46 C163 45.34 163 44.68 163 44 C162.33613281 44.27714844 161.67226563 44.55429687 160.98828125 44.83984375 C159.66376953 45.38318359 159.66376953 45.38318359 158.3125 45.9375 C157.00732422 46.47697266 157.00732422 46.47697266 155.67578125 47.02734375 C151.20821191 48.65132151 148.23158928 49.48947798 143.75 47.625 C143.06421875 47.34914063 142.3784375 47.07328125 141.671875 46.7890625 C140 46 140 46 139 45 C136.58416247 44.66625723 136.58416247 44.66625723 134 45 C133.60941406 45.49628906 133.21882813 45.99257813 132.81640625 46.50390625 C129.96592335 48.85172335 126.82710249 48.31548272 123.3125 48.1875 C122.61060547 48.17396484 121.90871094 48.16042969 121.18554688 48.14648438 C119.45670171 48.11120182 117.72825235 48.05739583 116 48 C114.07118107 44.4190055 113.58889934 42.11100659 114 38 C114.515625 36.989375 115.03125 35.97875 115.5625 34.9375 C117.17200849 31.64850439 117.10339438 30.41049173 116 27 C113.28224447 27 112.65571975 28.05079633 110.6875 29.875 C106.97244469 33.14980967 104.06632261 35 99 35 C99.391875 36.216875 99.78375 37.43375 100.1875 38.6875 C101.11372331 41.56366711 101.05646206 42.81708375 100.15234375 45.74609375 C97.64762135 48.36900632 97.06846495 48.36141825 93.5859375 48.5234375 C91.84841827 48.49952668 90.11110568 48.4490398 88.375 48.375 C87.49070312 48.36082031 86.60640625 48.34664063 85.6953125 48.33203125 C79.18218946 48.18218946 79.18218946 48.18218946 78 47 C77.95936168 45.33382885 77.957279 43.66611905 78 42 C77.319375 42.433125 76.63875 42.86625 75.9375 43.3125 C69.60965198 46.94764673 64.30472212 49.15082687 57 48 C53.8649257 46.90105893 50.93399181 45.55369779 48 44 C47.44179565 44.72195557 47.44179565 44.72195557 46.87231445 45.45849609 C44.26783806 47.60279965 42.39618743 47.49554406 39.04296875 47.6640625 C37.7904834 47.72754883 36.53799805 47.79103516 35.24755859 47.85644531 C33.83181015 47.90729253 32.41594625 47.95499641 31 48 C29.86791107 48.03812805 29.86791107 48.03812805 28.71295166 48.07702637 C23.76635015 48.23214494 18.82213888 48.31482705 13.87329102 48.35009766 C12.14626818 48.36689204 10.41932097 48.39447665 8.69262695 48.43212891 C6.16582338 48.48660119 3.64059039 48.50869051 1.11328125 48.5234375 C0.34148026 48.54610687 -0.43032074 48.56877625 -1.22550964 48.59213257 C-3.39331055 48.58349609 -3.39331055 48.58349609 -7 48 C-9.00708008 45.46728516 -9.00708008 45.46728516 -10 43 C-10.495 43.268125 -10.99 43.53625 -11.5 43.8125 C-20.16346794 47.92764727 -27.27196733 49.43200817 -36.75 47.0625 C-41.35551508 44.13976927 -44.45827624 40.84516093 -47 36 C-47.62413585 33.03925557 -47.87018843 30.30685913 -47.9296875 27.28515625 C-47.84105549 24.96831049 -47.84105549 24.96831049 -49 23 C-51.57951874 22.30906104 -51.57951874 22.30906104 -54.5625 21.875 C-55.57441406 21.70742188 -56.58632812 21.53984375 -57.62890625 21.3671875 C-58.41136719 21.24601562 -59.19382812 21.12484375 -60 21 C-60.73804975 29.27870644 -60.73804975 29.27870644 -57.9375 36.8125 C-56 40 -56 40 -56.25 43.9375 C-56.4975 44.948125 -56.745 45.95875 -57 47 C-61.3149962 48.24241508 -65.18633296 47.95933112 -69.625 47.6875 C-70.40101563 47.65205078 -71.17703125 47.61660156 -71.9765625 47.58007812 C-77.75605559 47.24394441 -77.75605559 47.24394441 -80 45 C-80.375 41.5625 -80.375 41.5625 -80 38 C-79.360625 37.525625 -78.72125 37.05125 -78.0625 36.5625 C-75.58604367 35.04388337 -75.58604367 35.04388337 -75.25 31.3125 C-74.92247787 27.20704815 -74.92650278 23.11584428 -75 19 C-75.66 19 -76.32 19 -77 19 C-77.99 20.485 -77.99 20.485 -79 22 C-81.875 22.4375 -81.875 22.4375 -85 22 C-87.84780619 19.76793569 -88.84997666 18.45007001 -90 15 C-90.66 15.33 -91.32 15.66 -92 16 C-91.505 25.405 -91.505 25.405 -91 35 C-90.34 35.33 -89.68 35.66 -89 36 C-89 36.99 -89 37.98 -89 39 C-88.34 39 -87.68 39 -87 39 C-86.8125 42.375 -86.8125 42.375 -87 46 C-90.3627515 48.24183433 -91.1604925 48.19617579 -95.03515625 47.94140625 C-96.49598633 47.85729492 -96.49598633 47.85729492 -97.98632812 47.77148438 C-99.00146484 47.70251953 -100.01660156 47.63355469 -101.0625 47.5625 C-103.07391794 47.43400335 -105.08563453 47.3100742 -107.09765625 47.19140625 C-108.43582397 47.10161499 -108.43582397 47.10161499 -109.80102539 47.01000977 C-112.04486696 46.83439999 -112.04486696 46.83439999 -114 48 C-118.63969152 48.32543339 -123.28781548 48.32448491 -127.9375 48.375 C-129.23880859 48.41238281 -130.54011719 48.44976562 -131.88085938 48.48828125 C-133.74774414 48.50568359 -133.74774414 48.50568359 -135.65234375 48.5234375 C-137.36925415 48.5531665 -137.36925415 48.5531665 -139.12084961 48.58349609 C-142 48 -142 48 -143.90844727 45.67041016 C-145.275528 42.32593933 -145.01407465 40.43225265 -144 37 C-143.34 36.67 -142.68 36.34 -142 36 C-139.42948046 32.14422068 -139.74175044 28.96094577 -139.8125 24.5 C-139.81314453 23.72785156 -139.81378906 22.95570313 -139.81445312 22.16015625 C-139.84016512 18.86330661 -139.95114 16.14658001 -141 13 C-146.32681331 15.87935855 -148.81838239 18.82870454 -150.71875 24.5546875 C-151.01136719 25.41707031 -151.30398437 26.27945312 -151.60546875 27.16796875 C-152.04826172 28.50794922 -152.04826172 28.50794922 -152.5 29.875 C-156.39171975 41.55015924 -156.39171975 41.55015924 -159 46 C-162.99099388 47.66291412 -166.84694365 46.86195509 -171 46 C-174.69866222 42.30133778 -175.60474575 36.46785291 -176.94140625 31.50390625 C-177.27011719 30.28574219 -177.59882813 29.06757813 -177.9375 27.8125 C-178.23527344 26.66394531 -178.53304687 25.51539063 -178.83984375 24.33203125 C-180.08570905 20.75383898 -181.85099245 18.10013407 -184 15 C-184 14.34 -184 13.68 -184 13 C-184.99 13 -185.98 13 -187 13 C-187 10.36 -187 7.72 -187 5 C-184.29710692 3.64855346 -182.19930194 3.88024835 -179.17333984 3.88647461 C-177.95222504 3.88655014 -176.73111023 3.88662567 -175.47299194 3.88670349 C-174.13564005 3.89181048 -172.79828857 3.89702648 -171.4609375 3.90234375 C-170.09616141 3.9042086 -168.73138466 3.90563219 -167.36660767 3.90663147 C-163.77284907 3.91045137 -160.17913083 3.92027717 -156.58538818 3.93133545 C-152.91891018 3.94156089 -149.25242565 3.94613152 -145.5859375 3.95117188 C-138.39060447 3.9618999 -131.19531303 3.97949244 -124 4 C-121.36 9.28 -118.72 14.56 -116 20 C-113.80735027 15.26104735 -111.96231292 11.13233557 -111 6 C-101.47852048 1.23926024 -84.30685105 3.6785966 -73.86206055 3.5949707 C-71.809158 3.57311208 -69.75635502 3.53869464 -67.70385742 3.49243164 C-64.7045044 3.42581096 -61.70701658 3.39807312 -58.70703125 3.37890625 C-57.33210258 3.33716026 -57.33210258 3.33716026 -55.92939758 3.29457092 C-49.7400087 3.31472132 -49.7400087 3.31472132 -47.51205444 5.37789917 C-46.39331055 7.03881836 -46.39331055 7.03881836 -45 10 C-44.03513672 9.36771484 -44.03513672 9.36771484 -43.05078125 8.72265625 C-35.82038553 4.33903545 -29.50792132 2.36163074 -21 3 C-14.41810151 4.63222604 -11.54039056 8.48115589 -8 14 C-7.01 14.495 -7.01 14.495 -6 15 C-6.13019531 14.32453125 -6.26039063 13.6490625 -6.39453125 12.953125 C-6.81421326 10.23891988 -7.11210163 7.74649 -7 5 C-4.7489601 2.50560443 -2.94929083 1.47464542 0 0 Z M-89 5 C-88 7 -88 7 -88 7 Z M-166 6 C-166 7.65 -166 9.3 -166 11 C-165.67 11 -165.34 11 -165 11 C-165 9.35 -165 7.7 -165 6 C-165.33 6 -165.66 6 -166 6 Z M113 11 C114 13 114 13 114 13 Z M-166 14 C-166.66 15.32 -167.32 16.64 -168 18 C-167.01 19.485 -167.01 19.485 -166 21 C-165.01 21 -164.02 21 -163 21 C-162.67 19.02 -162.34 17.04 -162 15 C-163.32 14.67 -164.64 14.34 -166 14 Z M-31 14 C-34.65732366 19.09808753 -35.56682083 22.38658276 -34.60546875 28.62109375 C-33.70996061 32.13957413 -32.53415942 34.39734978 -30 37 C-27.04411953 38.0001923 -27.04411953 38.0001923 -24 37 C-23.195625 36.01 -22.39125 35.02 -21.5625 34 C-19 31 -19 31 -15.1875 30.625 C-14.135625 30.74875 -13.08375 30.8725 -12 31 C-12 31.66 -12 32.32 -12 33 C-10.02 33.66 -8.04 34.32 -6 35 C-4.5393715 32.35261084 -4 31.10551666 -4 28 C-5.62339805 26.29115995 -7.29319053 24.62553283 -9 23 C-9.66 22.01 -10.32 21.02 -11 20 C-15.455 20.495 -15.455 20.495 -20 21 C-21.98 17.535 -21.98 17.535 -24 14 C-26.31 14 -28.62 14 -31 14 Z M94 16 C94.44703986 20.47883696 94.44703986 20.47883696 97 24 C99.78237655 23.59471099 99.78237655 23.59471099 102 22 C102.2500773 19.54190002 102.2500773 19.54190002 102 17 C101.34 16.34 100.68 15.68 100 15 C96.2236068 14.7018576 96.2236068 14.7018576 94 16 Z M114 17 C115 19 115 19 115 19 Z M-128 23 C-127 25 -127 25 -127 25 Z M-166 24 C-165 26 -165 26 -165 26 Z M8 25 C8 27.97 8 30.94 8 34 C11.85938975 35.34513424 11.85938975 35.34513424 15 34 C15.33397787 31.12586875 15.33397787 31.12586875 15 28 C13.2890789 26.02901574 13.2890789 26.02901574 11 25 C10.01 25 9.02 25 8 25 Z M163 25 C163 28.63 163 32.26 163 36 C161.68 36.33 160.36 36.66 159 37 C161.97 37.33 164.94 37.66 168 38 C169.6627026 35.32521756 170.99983813 33.0004856 172 30 C171.34 30 170.68 30 170 30 C170 29.01 170 28.02 170 27 C167.69 26.34 165.38 25.68 163 25 Z M-128 26 C-128 29.63 -128 33.26 -128 37 C-125.83382585 33.75073878 -125.78664331 33.4014758 -126.375 29.8125 C-126.58125 28.554375 -126.7875 27.29625 -127 26 C-127.33 26 -127.66 26 -128 26 Z M44 27 C44 27.66 44 28.32 44 29 C44.66 29 45.32 29 46 29 C46 28.34 46 27.68 46 27 C45.34 27 44.68 27 44 27 Z M47 27 C48 29 48 29 48 29 Z M28 28 C27.67 30.31 27.34 32.62 27 35 C27.99 35.33 28.98 35.66 30 36 C30.66 35.01 31.32 34.02 32 33 C31.19838209 30.32854463 31.19838209 30.32854463 30 28 C29.34 28 28.68 28 28 28 Z M-105 30 C-105 31.65 -105 33.3 -105 35 C-104.67 35 -104.34 35 -104 35 C-104 33.35 -104 31.7 -104 30 C-104.33 30 -104.66 30 -105 30 Z M44 30 C45 32 45 32 45 32 Z M-107 32 C-106 34 -106 34 -106 34 Z M47 34 C48 37 48 37 48 37 Z M60 37 C60 37.33 60 37.66 60 38 C61.65 38 63.3 38 65 38 C65 37.67 65 37.34 65 37 C63.35 37 61.7 37 60 37 Z M94 37 C98 38 98 38 98 38 Z M146 37 C146 37.33 146 37.66 146 38 C147.98 38 149.96 38 152 38 C152 37.67 152 37.34 152 37 C150.02 37 148.04 37 146 37 Z M28 38 C29 40 29 40 29 40 Z " fill="#101011" transform="translate(306,249)"/>
<path d="M0 0 C-0.3197699 3.23135894 -0.70405417 4.69420862 -2.99609375 7.0625 C-3.80175781 7.701875 -4.60742188 8.34125 -5.4375 9 C-8.91025403 11.76482503 -10.64596749 13.73812719 -12 18 C-11.01 18 -10.02 18 -9 18 C-10.22309226 23.50391517 -12.05648874 27.43184235 -15.875 31.625 C-16.55304688 32.38039062 -17.23109375 33.13578125 -17.9296875 33.9140625 C-19.85766636 35.85659214 -21.71393798 37.49827725 -24 39 C-24.66 39 -25.32 39 -26 39 C-26.20625 39.5775 -26.4125 40.155 -26.625 40.75 C-32.16372585 49.81336958 -47.42489822 53.09185958 -57 56 C-58.21429688 56.37253906 -59.42859375 56.74507812 -60.6796875 57.12890625 C-66.25915869 58.47978258 -71.91598448 58.32925181 -77.625 58.3125 C-79.28402344 58.33666992 -79.28402344 58.33666992 -80.9765625 58.36132812 C-86.80095977 58.36482836 -91.08715509 58.26661092 -96 55 C-95.3515625 53.1015625 -95.3515625 53.1015625 -94 51 C-91.4609375 50.0234375 -91.4609375 50.0234375 -88.375 49.375 C-87.28832031 49.13652344 -86.20164062 48.89804688 -85.08203125 48.65234375 C-84.06496094 48.43707031 -83.04789062 48.22179687 -82 48 C-80.68569392 47.65259562 -79.3728707 47.29946535 -78.0625 46.9375 C-74.752618 46.10324695 -71.44108112 45.60586241 -68.0625 45.125 C-62.7063936 44.33219637 -57.45803208 43.28664595 -52.1875 42.0625 C-51.49470947 41.90475098 -50.80191895 41.74700195 -50.08813477 41.58447266 C-45.22566521 40.42704586 -40.64443767 38.83607091 -36 37 C-35.10410156 36.6803125 -34.20820313 36.360625 -33.28515625 36.03125 C-30.6441409 34.83940718 -28.67443148 33.33622897 -26.4375 31.5 C-23.71852482 29.27581233 -21.20492005 27.45347848 -18 26 C-18 25.34 -18 24.68 -18 24 C-17.34 24 -16.68 24 -16 24 C-16 23.01 -16 22.02 -16 21 C-16.71285156 21.55429688 -17.42570312 22.10859375 -18.16015625 22.6796875 C-23.39198229 26.6370041 -27.5456009 29.73443155 -34 31 C-35.03125 31.350625 -36.0625 31.70125 -37.125 32.0625 C-41.86729515 33.60890059 -46.49159573 34.19341023 -51.453125 34.61328125 C-76.9715566 36.59671893 -76.9715566 36.59671893 -100.7109375 45.4921875 C-107.69711538 49.11844406 -107.69711538 49.11844406 -111.27734375 48.79296875 C-113.35768472 48.04628207 -115.1160446 47.15199922 -117 46 C-118.546875 45.13375 -118.546875 45.13375 -120.125 44.25 C-123.56613042 41.55694141 -126.50142292 38.59724217 -129 35 C-129 34.34 -129 33.68 -129 33 C-128.01 33 -127.02 33 -126 33 C-126 32.34 -126 31.68 -126 31 C-109.72616388 24.73279739 -95.10838721 20.13043848 -77.5859375 19.5703125 C-75.58721999 19.49662315 -73.58852259 19.42238687 -71.58984375 19.34765625 C-68.49020983 19.23480906 -65.39061612 19.12550183 -62.29052734 19.02587891 C-39.62290061 19.1640602 -39.62290061 19.1640602 -19.625 10.1875 C-18.47447348 9.29881184 -17.3234316 8.41079049 -16.171875 7.5234375 C-15.63369141 7.09385742 -15.09550781 6.66427734 -14.54101562 6.22167969 C-12.3738366 4.50359289 -10.14451215 2.89225846 -7.875 1.3125 C-7.21242188 0.83425781 -6.54984375 0.35601562 -5.8671875 -0.13671875 C-3.51212014 -1.22556789 -2.38835234 -0.87572919 0 0 Z " fill="#121213" transform="translate(385,173)"/>
<path d="M0 0 C7.25969837 0.01536444 14.50194555 0.15993524 21.75390625 0.5078125 C22.86463501 0.55397705 22.86463501 0.55397705 23.99780273 0.60107422 C28.6775006 0.85574446 32.7477244 1.75667313 37.25390625 3.1328125 C38.81000926 3.36755899 40.3732692 3.56299214 41.94140625 3.6953125 C45.63231206 4.01654587 48.96568594 4.76474955 52.5234375 5.78125 C63.65891152 8.96281401 74.9961065 11.04198658 86.44921875 12.703125 C88.16907112 12.96661213 89.88409491 13.26994208 91.58422852 13.63989258 C94.34362629 14.14937809 96.97064426 14.33961231 99.7734375 14.44921875 C100.79501953 14.49111328 101.81660156 14.53300781 102.86914062 14.57617188 C103.92423828 14.61548828 104.97933594 14.65480469 106.06640625 14.6953125 C107.14083984 14.73849609 108.21527344 14.78167969 109.32226562 14.82617188 C111.96602707 14.93192233 114.60987735 15.03401483 117.25390625 15.1328125 C117.25390625 14.4728125 117.25390625 13.8128125 117.25390625 13.1328125 C119.23390625 13.1328125 121.21390625 13.1328125 123.25390625 13.1328125 C122.92390625 15.1128125 122.59390625 17.0928125 122.25390625 19.1328125 C121.22330078 19.33197266 121.22330078 19.33197266 120.171875 19.53515625 C119.27082031 19.71175781 118.36976563 19.88835937 117.44140625 20.0703125 C116.54808594 20.24433594 115.65476562 20.41835937 114.734375 20.59765625 C112.13993454 21.11022403 112.13993454 21.11022403 109.25390625 22.1328125 C108.26390625 22.1328125 107.27390625 22.1328125 106.25390625 22.1328125 C106.25390625 22.7928125 106.25390625 23.4528125 106.25390625 24.1328125 C92.54483521 25.87364692 79.02676604 25.31128258 65.328125 23.84942627 C36.46863735 20.83558677 6.9913507 20.39689907 -21.47680664 26.75244141 C-23.74609375 27.1328125 -23.74609375 27.1328125 -28.74609375 27.1328125 C-28.74609375 19.5428125 -28.74609375 11.9528125 -28.74609375 4.1328125 C-13.21146026 0.74343792 -13.21146026 0.74343792 -5.50390625 1.125 C-4.63378906 1.12886719 -4.63378906 1.12886719 -3.74609375 1.1328125 C-2.74609375 0.1328125 -2.74609375 0.1328125 0 0 Z " fill="#141516" transform="translate(262.74609375,137.8671875)"/>
<path d="M0 0 C0.20086443 3.71599191 0.1519437 4.77208445 -2 8 C-4.50390625 9.39453125 -4.50390625 9.39453125 -7.5625 10.8125 C-11.44592232 12.65129361 -14.6904823 14.4667922 -18 17.1875 C-30.58222186 25.75507353 -51.5522637 23.51236643 -66.03564453 23.90722656 C-71.41164546 24.07547564 -76.77435235 24.41020771 -82.140625 24.765625 C-84.73213041 24.92300387 -87.32660434 25.03699693 -89.921875 25.109375 C-102.9336297 25.57224374 -115.06749279 28.67738003 -127.1875 33.34863281 C-129.58889015 34.2116324 -131.99156174 34.73458754 -134.5 35.1875 C-135.3559375 35.34605469 -136.211875 35.50460938 -137.09375 35.66796875 C-137.7228125 35.77753906 -138.351875 35.88710937 -139 36 C-142.33274503 32.14374856 -144.56499945 28.24036596 -146.75 23.6875 C-147.06582031 23.04232422 -147.38164062 22.39714844 -147.70703125 21.73242188 C-148.47691708 20.15765541 -149.23924891 18.5791996 -150 17 C-149.01 15.515 -149.01 15.515 -148 14 C-146.39206371 13.71150484 -144.77824008 13.44173577 -143.15332031 13.2734375 C-138.82540456 12.7238609 -134.60739244 11.53735109 -130.375 10.5 C-128.52884073 10.05128073 -126.68249238 9.6033385 -124.8359375 9.15625 C-124.02688965 8.95837891 -123.2178418 8.76050781 -122.38427734 8.55664062 C-110.3997948 5.75870696 -98.10369346 5.83456881 -85.85693359 5.86962891 C-83.60637843 5.87504481 -81.35601836 5.86961534 -79.10546875 5.86328125 C-77.6458329 5.86394133 -76.18619717 5.86522103 -74.7265625 5.8671875 C-72.78644287 5.86887939 -72.78644287 5.86887939 -70.80712891 5.87060547 C-66.7994881 6.00681488 -62.97290976 6.47294427 -59 7 C-57.0003188 7.03570859 -54.99937529 7.04998438 -53 7 C-53 7.66 -53 8.32 -53 9 C-49.0205267 8.86185777 -45.04151585 8.71320326 -41.0625 8.5625 C-39.92619141 8.52318359 -38.78988281 8.48386719 -37.61914062 8.44335938 C-35.99975586 8.38051758 -35.99975586 8.38051758 -34.34765625 8.31640625 C-33.34742432 8.27974854 -32.34719238 8.24309082 -31.31665039 8.20532227 C-29.03930812 8.25328159 -29.03930812 8.25328159 -28 7 C-26.13038213 6.67561835 -24.25384941 6.39074297 -22.375 6.125 C-16.02451653 5.10922362 -11.41186525 3.29869667 -5.75 0.25 C-3 -1 -3 -1 0 0 Z " fill="#151617" transform="translate(386,161)"/>
<path d="M0 0 C0.33 0.66 0.66 1.32 1 2 C3.30514852 2.23497643 5.62166433 2.36115377 7.9375 2.4375 C13.52152619 2.68478505 18.32441885 3.5451182 23.59765625 5.37890625 C27.18022252 6.3051307 30.5935306 6.07968214 34.26171875 5.8125 C37.17516902 6.01199445 39.19461077 6.89741504 41.82006836 8.11328125 C46.67934364 10.08986181 51.86635289 11.1929739 56.9375 12.5 C64.12435336 14.35859901 71.07501911 16.32871212 78 19 C80.24226876 19.53750815 80.24226876 19.53750815 82.3125 19.8125 C91.75714438 21.52970807 100.90886926 24.96962309 110 28 C111.6010831 28.32793268 113.20569778 28.63884705 114.8125 28.9375 C118.66570905 29.68783207 122.30818524 30.63985772 126 32 C126 32.66 126 33.32 126 34 C126.99 33.67 127.98 33.34 129 33 C129.66 33.33 130.32 33.66 131 34 C131 34.66 131 35.32 131 36 C132.32 36.33 133.64 36.66 135 37 C134.67 37.99 134.34 38.98 134 40 C109.51182901 39.67701453 84.86532496 36.04822511 60.83764648 31.45214844 C41.8291277 27.83565308 22.66003109 25.61278862 3.39501953 23.95092773 C2.11095215 23.83950439 0.82688477 23.72808105 -0.49609375 23.61328125 C-1.63232178 23.51829346 -2.7685498 23.42330566 -3.93920898 23.32543945 C-6.68058691 23.03396169 -9.30985632 22.59324335 -12 22 C-11.67 19.69 -11.34 17.38 -11 15 C-10.34 15 -9.68 15 -9 15 C-8.7525 14.113125 -8.505 13.22625 -8.25 12.3125 C-6.95387936 8.87778031 -5.33792687 6.79042885 -3 4 C-2.67 3.01 -2.34 2.02 -2 1 C-1.34 0.67 -0.68 0.34 0 0 Z " fill="#151517" transform="translate(251,106)"/>
<path d="M0 0 C3.60679365 0.27744567 5.28475666 1.27317111 8.25 3.25 C8.91 3.25 9.57 3.25 10.25 3.25 C10.25 3.91 10.25 4.57 10.25 5.25 C10.97574219 5.37890625 11.70148438 5.5078125 12.44921875 5.640625 C19.20976931 7.11153977 25.17977314 10.04674085 30.921875 13.828125 C36.14245332 17.01653189 41.75919617 19.56192666 47.25 22.25 C48.87594697 23.0606033 50.5011574 23.8726893 52.125 24.6875 C53.15625 25.203125 54.1875 25.71875 55.25 26.25 C55.25 26.91 55.25 27.57 55.25 28.25 C56.36375 28.559375 57.4775 28.86875 58.625 29.1875 C62.25 30.25 62.25 30.25 64.25 31.25 C64.25 31.91 64.25 32.57 64.25 33.25 C65.24 32.92 66.23 32.59 67.25 32.25 C69.52457789 33.45543542 71.56501706 34.68922807 73.6875 36.125 C74.30133545 36.53339111 74.9151709 36.94178223 75.54760742 37.36254883 C77.4577841 38.64509251 79.35414014 39.94641264 81.25 41.25 C81.84780273 41.6517041 82.44560547 42.0534082 83.06152344 42.46728516 C84.74299769 43.60286903 86.40326164 44.76966676 88.0625 45.9375 C89.03832031 46.62199219 90.01414062 47.30648437 91.01953125 48.01171875 C93.72438682 50.72604842 94.00781808 52.48810746 94.25 56.25 C88.07325745 55.15412632 83.25587868 53.40138796 77.72265625 50.4765625 C74.71009188 48.98217828 71.66194366 47.9935095 68.4609375 46.98828125 C62.93532962 45.14315777 57.76691852 42.5236934 52.625 39.8125 C48.12313784 37.54098114 43.55291374 35.92679145 38.75 34.40649414 C34.67382155 33.10034565 30.67573803 31.66516663 26.6875 30.109375 C15.18436954 25.62362363 3.93971259 21.95707389 -8.12109375 19.3125 C-13.81974043 18.05313057 -19.2766609 16.27842174 -24.75 14.25 C-24.75 12.93 -24.75 11.61 -24.75 10.25 C-20.86925422 7.20957319 -16.09913951 5.7710949 -11.5 4.125 C-0.09454653 0.00859514 -0.09454653 0.00859514 0 0 Z " fill="#161718" transform="translate(290.75,79.75)"/>
<path d="M0 0 C11.52164009 -0.55353075 11.52164009 -0.55353075 17 3 C17.66 2.01 18.32 1.02 19 0 C21.93359375 -0.3984375 21.93359375 -0.3984375 25.4375 -0.375 C26.59121094 -0.38273437 27.74492187 -0.39046875 28.93359375 -0.3984375 C32.25775631 0.0334919 32.94717791 0.50493006 35 3 C35.66 3 36.32 3 37 3 C37.66 2.01 38.32 1.02 39 0 C41.09375 -0.328125 41.09375 -0.328125 43.5 -0.25 C44.2940625 -0.23453125 45.088125 -0.2190625 45.90625 -0.203125 C48 0 48 0 50 1 C49.7215625 2.175625 49.7215625 2.175625 49.4375 3.375 C48.74037734 5.97089775 48.74037734 5.97089775 50 8 C49 10 49 10 46.5 10.875 C43.8857244 11.73470219 43.8857244 11.73470219 43.0625 13.875 C42.98542257 16.49563262 43.57198695 17.82040113 45 20 C45.66 20.33 46.32 20.66 47 21 C49.33601233 22.79693256 49.94103055 23.59704207 50.375 26.5625 C50.189375 27.7690625 50.189375 27.7690625 50 29 C46.78169935 31.14553377 45.73213493 31.29583868 42 31.3125 C40.700625 31.33763672 40.700625 31.33763672 39.375 31.36328125 C36.55171192 30.93142962 35.70720429 30.24375421 34 28 C33.3125 25.8125 33.3125 25.8125 33 24 C31.02 24.99 31.02 24.99 29 26 C28.34 25.01 27.68 24.02 27 23 C27.31229724 21.66158328 27.64830932 20.32860925 28 19 C27.61432869 16.31850007 27.61432869 16.31850007 27 14 C26.34 14 25.68 14 25 14 C25 13.01 25 12.02 25 11 C24.21625 11.020625 23.4325 11.04125 22.625 11.0625 C20 11 20 11 18 10 C17.67 12.31 17.34 14.62 17 17 C15.68 17 14.36 17 13 17 C12.34 16.01 11.68 15.02 11 14 C11.99 13.34 12.98 12.68 14 12 C14.25015873 8.41642759 14.25015873 8.41642759 14 5 C13.01 5 12.02 5 11 5 C10.34 6.32 9.68 7.64 9 9 C8.34 8.67 7.68 8.34 7 8 C6.67 8.99 6.34 9.98 6 11 C4.68 10.67 3.36 10.34 2 10 C2.66 9.67 3.32 9.34 4 9 C4 8.34 4 7.68 4 7 C3.01 7.33 2.02 7.66 1 8 C0.375 6.1875 0.375 6.1875 0 4 C0.66 3.01 1.32 2.02 2 1 C1.34 0.67 0.68 0.34 0 0 Z " fill="#141415" transform="translate(451,265)"/>
<path d="M0 0 C1 2 2 4 3 6 C0.63707344 8.52588702 -0.66462511 9.88820837 -4 11 C-3.01 11.33 -2.02 11.66 -1 12 C-2.33190519 12.46246708 -3.6656307 12.91969155 -5 13.375 C-5.7425 13.63023437 -6.485 13.88546875 -7.25 14.1484375 C-15.27539385 16.63357366 -22.219872 17.33716293 -30.625 17.3125 C-32.28402344 17.33666992 -32.28402344 17.33666992 -33.9765625 17.36132812 C-39.80095977 17.36482836 -44.08715509 17.26661092 -49 14 C-48.3515625 12.1015625 -48.3515625 12.1015625 -47 10 C-44.4609375 9.0234375 -44.4609375 9.0234375 -41.375 8.375 C-40.28832031 8.13652344 -39.20164062 7.89804688 -38.08203125 7.65234375 C-36.55642578 7.32943359 -36.55642578 7.32943359 -35 7 C-33.68569392 6.65259562 -32.3728707 6.29946535 -31.0625 5.9375 C-26.609819 4.81744416 -22.08153002 4.23930686 -17.54296875 3.57421875 C-11.64502373 2.61832248 -5.82866656 1.31079458 0 0 Z " fill="#181819" transform="translate(338,214)"/>
<path d="M0 0 C11.13672779 3.9453786 24.36836721 9.89233545 32.25 19 C32.25 19.66 32.25 20.32 32.25 21 C32.806875 21.20625 33.36375 21.4125 33.9375 21.625 C36.53783209 23.17114341 38.15514236 25.0513778 40.0078125 27.421875 C41.14134774 28.86196379 42.37920113 30.21834858 43.625 31.5625 C45.25 34 45.25 34 45 36.8125 C44.7525 37.534375 44.505 38.25625 44.25 39 C42.93 38.67 41.61 38.34 40.25 38 C39.755 36.02 39.755 36.02 39.25 34 C38.69828125 33.91621094 38.1465625 33.83242187 37.578125 33.74609375 C34.49581146 32.75830535 32.51098716 31.09258173 30 29.0625 C29.10796875 28.35222656 28.2159375 27.64195313 27.296875 26.91015625 C26.62140625 26.27980469 25.9459375 25.64945313 25.25 25 C25.25 24.34 25.25 23.68 25.25 23 C24.321875 22.731875 23.39375 22.46375 22.4375 22.1875 C19.25045272 21.00016866 18.4871922 20.34712793 16.25 18 C10.30058937 12.86675401 4.27638246 8.53016317 -2.75 5 C-2.75 4.34 -2.75 3.68 -2.75 3 C-3.41 3 -4.07 3 -4.75 3 C-5.08 2.01 -5.41 1.02 -5.75 0 C-3.75 -1 -3.75 -1 0 0 Z " fill="#0B0C0C" transform="translate(331.75,80)"/>
<path d="M0 0 C0.66 0.33 1.32 0.66 2 1 C2.495 9.415 2.495 9.415 3 18 C3.66 18.33 4.32 18.66 5 19 C5 19.99 5 20.98 5 22 C5.66 22 6.32 22 7 22 C7.1875 25.375 7.1875 25.375 7 29 C3.64423185 31.23717877 2.86288357 31.19722403 -1 30.94140625 C-1.969375 30.88533203 -2.93875 30.82925781 -3.9375 30.77148438 C-5.4534375 30.66803711 -5.4534375 30.66803711 -7 30.5625 C-8.99967754 30.43369424 -10.9996776 30.30977639 -13 30.19140625 C-14.3303125 30.10161499 -14.3303125 30.10161499 -15.6875 30.01000977 C-18.16139956 29.87583808 -18.16139956 29.87583808 -21 31 C-21.66 30.34 -22.32 29.68 -23 29 C-22.38125 28.278125 -21.7625 27.55625 -21.125 26.8125 C-18.68581602 23.58416826 -17.51487847 20.71002062 -16.35546875 16.859375 C-14.89145927 12.13070268 -13.45701747 8.69543246 -10 5 C-8.92689142 8.27185553 -9.10736898 10.42947592 -9.9375 13.75 C-10.13214844 14.54921875 -10.32679688 15.3484375 -10.52734375 16.171875 C-10.68332031 16.77515625 -10.83929688 17.3784375 -11 18 C-10.34 18 -9.68 18 -9 18 C-8.34 18.66 -7.68 19.32 -7 20 C-6.34 20.33 -5.68 20.66 -5 21 C-4.67 20.01 -4.34 19.02 -4 18 C-3.01 17.67 -2.02 17.34 -1 17 C-1.01160156 16.19175781 -1.02320313 15.38351562 -1.03515625 14.55078125 C-1.04417969 13.48214844 -1.05320313 12.41351563 -1.0625 11.3125 C-1.07410156 10.25675781 -1.08570313 9.20101563 -1.09765625 8.11328125 C-1.00865425 5.27589738 -0.64939838 2.7561081 0 0 Z M-13 15 C-12 17 -12 17 -12 17 Z " fill="#101111" transform="translate(212,266)"/>
<path d="M0 0 C5.44444444 2.44444444 5.44444444 2.44444444 7 4 C7.16017882 8.16464926 6.98248196 11.94726192 6 16 C4.865625 16.12375 3.73125 16.2475 2.5625 16.375 C0.7990625 16.684375 0.7990625 16.684375 -1 17 C-1.33 17.66 -1.66 18.32 -2 19 C-2.99 19.66 -3.98 20.32 -5 21 C-4.67 21.78375 -4.34 22.5675 -4 23.375 C-3 26 -3 26 -3 28 C-4.75 27.875 -4.75 27.875 -7 27 C-9.25 23.9375 -9.25 23.9375 -11 21 C-11.61488281 21.11859375 -12.22976563 21.2371875 -12.86328125 21.359375 C-15.28392731 21.74544295 -17.54755759 22.03913472 -20 22 C-22.0625 20.1875 -22.0625 20.1875 -23 18 C-23 17.34 -23 16.68 -23 16 C-22.34 16 -21.68 16 -21 16 C-20.67 15.34 -20.34 14.68 -20 14 C-19.608125 14.495 -19.21625 14.99 -18.8125 15.5 C-16.44908285 17.45593143 -14.98564997 17.24207973 -12 17 C-11.67 15.68 -11.34 14.36 -11 13 C-11.66 13 -12.32 13 -13 13 C-16 8.61538462 -16 8.61538462 -16 6 C-11.77511272 7.50888831 -10.34495342 10.32623964 -8 14 C-7.34 14.33 -6.68 14.66 -6 15 C-6.13019531 14.32453125 -6.26039063 13.6490625 -6.39453125 12.953125 C-6.81421326 10.23891988 -7.11210163 7.74649 -7 5 C-4.7489601 2.50560443 -2.94929083 1.47464542 0 0 Z " fill="#050608" transform="translate(306,249)"/>
<path d="M0 0 C3.14615626 1.57307813 5.7428446 3.2990219 8 6 C9.13737531 10.33827438 9.77212206 15.82285514 8 20 C5.625 21.4375 5.625 21.4375 3 22 C2.01 21.34 1.02 20.68 0 20 C-2.19789585 20.04953621 -2.19789585 20.04953621 -4.5 20.5 C-8.66666667 21.22222222 -8.66666667 21.22222222 -12 19 C-11 16 -11 16 -9 14 C-9.83333333 11.83333333 -9.83333333 11.83333333 -12 11 C-11.01 10.67 -10.02 10.34 -9 10 C-9.33 9.34 -9.66 8.68 -10 8 C-9.401875 7.5875 -8.80375 7.175 -8.1875 6.75 C-5.93331149 5.10153614 -5.93331149 5.10153614 -4.4375 2.875 C-3 1 -3 1 0 0 Z " fill="#0B0C0C" transform="translate(374,265)"/>
<path d="M0 0 C1.63001953 0.01353516 1.63001953 0.01353516 3.29296875 0.02734375 C4.12441406 0.03894531 4.95585937 0.05054688 5.8125 0.0625 C5.4825 1.0525 5.1525 2.0425 4.8125 3.0625 C5.8025 4.5475 5.8025 4.5475 6.8125 6.0625 C6.29525862 9.57974138 6.29525862 9.57974138 4.8125 11.0625 C1.25801265 11.34355447 -2.31073265 11.29437277 -5.875 11.3125 C-6.86951172 11.333125 -7.86402344 11.35375 -8.88867188 11.375 C-14.51753099 11.40496066 -18.41899032 11.14943983 -23.1875 8.0625 C-22.55859375 6.16796875 -22.55859375 6.16796875 -21.1875 4.0625 C-18.47265625 3.05078125 -18.47265625 3.05078125 -15.25 2.375 C-14.18910156 2.14425781 -13.12820313 1.91351563 -12.03515625 1.67578125 C-11.09542969 1.47339844 -10.15570313 1.27101562 -9.1875 1.0625 C-5.90230525 -0.03256492 -3.45086585 -0.03710608 0 0 Z " fill="#0C0C0D" transform="translate(312.1875,219.9375)"/>
<path d="M0 0 C1.98 0 3.96 0 6 0 C5.67 1.98 5.34 3.96 5 6 C3.96939453 6.19916016 3.96939453 6.19916016 2.91796875 6.40234375 C1.56638672 6.66724609 1.56638672 6.66724609 0.1875 6.9375 C-0.70582031 7.11152344 -1.59914063 7.28554687 -2.51953125 7.46484375 C-5.11397171 7.97741153 -5.11397171 7.97741153 -8 9 C-8.99 9 -9.98 9 -11 9 C-11 9.66 -11 10.32 -11 11 C-16.94 11.495 -16.94 11.495 -23 12 C-23 11.01 -23 10.02 -23 9 C-23.75150023 5.72226496 -23.75150023 5.72226496 -27 4 C-27 3.34 -27 2.68 -27 2 C-23.74741974 1.00615603 -20.96534629 0.95173269 -17.578125 1.12109375 C-16.55332031 1.16943359 -15.52851563 1.21777344 -14.47265625 1.26757812 C-13.40917969 1.32365234 -12.34570312 1.37972656 -11.25 1.4375 C-10.17105469 1.48970703 -9.09210938 1.54191406 -7.98046875 1.59570312 C-5.32000578 1.72519469 -2.65993548 1.86015361 0 2 C0 1.34 0 0.68 0 0 Z " fill="#0F0F0F" transform="translate(380,151)"/>
<path d="M0 0 C0.33 0.99 0.66 1.98 1 3 C2.65 3 4.3 3 6 3 C6.33 2.34 6.66 1.68 7 1 C7.33 2.65 7.66 4.3 8 6 C10.31 6.33 12.62 6.66 15 7 C15.04241723 9.33294775 15.04092937 11.66702567 15 14 C13.15174303 15.84825697 10.2258947 15.17362167 7.75 15.1875 C6.61046875 15.20167969 5.4709375 15.21585937 4.296875 15.23046875 C1.08472955 15.00592304 -1.11296626 14.37296905 -4 13 C-4 13.66 -4 14.32 -4 15 C-4.99 15 -5.98 15 -7 15 C-7 13.02 -7 11.04 -7 9 C-6.34 9 -5.68 9 -5 9 C-5 8.34 -5 7.68 -5 7 C-5.66 6.67 -6.32 6.34 -7 6 C-6.67 5.34 -6.34 4.68 -6 4 C-3.4375 3.375 -3.4375 3.375 -1 3 C-0.67 2.01 -0.34 1.02 0 0 Z M-4 7 C-3 9 -3 9 -3 9 Z " fill="#181818" transform="translate(338,280)"/>
<path d="M0 0 C0.66 0.66 1.32 1.32 2 2 C1.236875 2.268125 0.47375 2.53625 -0.3125 2.8125 C-3.88190849 4.3896805 -5.50558723 5.74463918 -6.94921875 9.41015625 C-7.19285156 10.28542969 -7.43648438 11.16070312 -7.6875 12.0625 C-7.93886719 12.94035156 -8.19023437 13.81820313 -8.44921875 14.72265625 C-9.07835837 16.93349221 -9.07835837 16.93349221 -9 19 C-9.99 19.33 -10.98 19.66 -12 20 C-12.33 19.34 -12.66 18.68 -13 18 C-15.57951874 17.30906104 -15.57951874 17.30906104 -18.5625 16.875 C-19.57441406 16.70742188 -20.58632812 16.53984375 -21.62890625 16.3671875 C-22.41136719 16.24601562 -23.19382813 16.12484375 -24 16 C-24.05406122 17.93719378 -24.09282025 19.87481921 -24.125 21.8125 C-24.14820313 22.89144531 -24.17140625 23.97039062 -24.1953125 25.08203125 C-24.23023717 28.19402868 -24.23023717 28.19402868 -22 31 C-21.875 34.1875 -21.875 34.1875 -22 37 C-25.90853257 32.83089859 -27.02262324 29.50885085 -28 24 C-27.505 22.515 -27.505 22.515 -27 21 C-27.20625 20.0925 -27.4125 19.185 -27.625 18.25 C-28.12518925 13.91502648 -26.93101882 11.86203764 -25 8 C-23.35 8.33 -21.7 8.66 -20 9 C-20.33 10.32 -20.66 11.64 -21 13 C-19.35 13 -17.7 13 -16 13 C-16 12.34 -16 11.68 -16 11 C-15.34 11 -14.68 11 -14 11 C-13.34 8.03 -12.68 5.06 -12 2 C-11.01 2.99 -10.02 3.98 -9 5 C-6.03 3.35 -3.06 1.7 0 0 Z " fill="#010204" transform="translate(270,254)"/>
<path d="M0 0 C1.5778125 0.433125 1.5778125 0.433125 3.1875 0.875 C3.1875 1.535 3.1875 2.195 3.1875 2.875 C5.53283951 3.64456136 5.53283951 3.64456136 8.1875 3.875 C10.0229799 2.54121425 10.0229799 2.54121425 11.1875 0.875 C11.1875 2.855 11.1875 4.835 11.1875 6.875 C10.1975 6.875 9.2075 6.875 8.1875 6.875 C8.31125 8.174375 8.435 9.47375 8.5625 10.8125 C8.63210938 11.54339844 8.70171875 12.27429688 8.7734375 13.02734375 C8.91007812 13.63707031 9.04671875 14.24679687 9.1875 14.875 C9.8475 15.205 10.5075 15.535 11.1875 15.875 C10.1975 16.535 9.2075 17.195 8.1875 17.875 C7.1975 16.225 6.2075 14.575 5.1875 12.875 C4.62546875 13.17148437 4.0634375 13.46796875 3.484375 13.7734375 C1.16782695 14.88443503 -1.11959092 15.70964706 -3.5625 16.5 C-4.76132812 16.89058594 -4.76132812 16.89058594 -5.984375 17.2890625 C-6.58765625 17.48242188 -7.1909375 17.67578125 -7.8125 17.875 C-7.4825 15.895 -7.1525 13.915 -6.8125 11.875 C-5.8225 11.545 -4.8325 11.215 -3.8125 10.875 C-3.4825 9.885 -3.1525 8.895 -2.8125 7.875 C-4.4625 7.875 -6.1125 7.875 -7.8125 7.875 C-8.1425 7.215 -8.4725 6.555 -8.8125 5.875 C-4.75096154 -0.15576923 -4.75096154 -0.15576923 0 0 Z " fill="#010104" transform="translate(290.8125,279.125)"/>
<path d="M0 0 C0.99 0 1.98 0 3 0 C3 0.66 3 1.32 3 2 C5.31 2 7.62 2 10 2 C10.33 1.34 10.66 0.68 11 0 C12.32 0.33 13.64 0.66 15 1 C15 4.96 15 8.92 15 13 C10.53254494 14.80825562 7.67878181 15.22055178 3 14 C1.65623913 13.35460947 0.32063061 12.69148899 -1 12 C-1.02687279 10.18757948 -1.04633715 8.37504767 -1.0625 6.5625 C-1.07410156 5.55316406 -1.08570313 4.54382813 -1.09765625 3.50390625 C-1 1 -1 1 0 0 Z " fill="#040505" transform="translate(423,305)"/>
<path d="M0 0 C4.75 0.75 4.75 0.75 7 3 C9.57061311 3.64767793 9.57061311 3.64767793 12 4 C12.22197585 6.10277123 12.42713637 8.20732302 12.625 10.3125 C12.74101562 11.48425781 12.85703125 12.65601563 12.9765625 13.86328125 C13 17 13 17 11 20 C9.68 20 8.36 20 7 20 C6.67 20.66 6.34 21.32 6 22 C5.34 21.67 4.68 21.34 4 21 C4 25.29 4 29.58 4 34 C3.67 34 3.34 34 3 34 C1.99767971 27.42923368 2.12827201 21.43647947 2.74609375 14.8203125 C3.04483253 11.97396713 3.04483253 11.97396713 3 9 C2.01 9.33 1.02 9.66 0 10 C-1.37494222 7.73538929 -2.07991957 6.54345306 -1.6875 3.875 C-1 2 -1 2 0 0 Z " fill="#1D1D1D" transform="translate(421,249)"/>
<path d="M0 0 C2.70438996 0.36405249 3.74406383 0.68142682 5.484375 2.84765625 C5.90203125 3.57855469 6.3196875 4.30945313 6.75 5.0625 C7.39195312 6.16271484 7.39195312 6.16271484 8.046875 7.28515625 C8.36140625 7.85105469 8.6759375 8.41695313 9 9 C10.32 8.34 11.64 7.68 13 7 C13 6.34 13 5.68 13 5 C13.66 5 14.32 5 15 5 C15.33 3.68 15.66 2.36 16 1 C17.65 1 19.3 1 21 1 C20.01 2.485 20.01 2.485 19 4 C18.34 4 17.68 4 17 4 C15.18698242 8.43093198 15.18698242 8.43093198 16 13 C15.01 13 14.02 13 13 13 C12.67 12.34 12.34 11.68 12 11 C12 12.65 12 14.3 12 16 C12.66 16.33 13.32 16.66 14 17 C13.33333333 19 12.66666667 21 12 23 C12.66 23 13.32 23 14 23 C14 23.66 14 24.32 14 25 C14.99 25.33 15.98 25.66 17 26 C17.66 26.99 18.32 27.98 19 29 C21.56282742 29.72965366 21.56282742 29.72965366 24 30 C23.01 30.66 22.02 31.32 21 32 C18.80859375 31.35546875 18.80859375 31.35546875 16.4375 30.1875 C15.65246094 29.80980469 14.86742187 29.43210937 14.05859375 29.04296875 C13.37925781 28.69878906 12.69992187 28.35460937 12 28 C11.34 27.67 10.68 27.34 10 27 C10 25.35 10 23.7 10 22 C8.02 22 6.04 22 4 22 C3.67 21.01 3.34 20.02 3 19 C4 17 4 17 5 16 C4.74531979 14.53046594 4.4209191 13.07273206 4.0625 11.625 C3.3966628 8.91755604 3 6.80943675 3 4 C1.54166642 2.37485532 1.54166642 2.37485532 0 1 C0 0.67 0 0.34 0 0 Z M8 11 C8 11.66 8 12.32 8 13 C8.66 13 9.32 13 10 13 C10 12.34 10 11.68 10 11 C9.34 11 8.68 11 8 11 Z M8 14 C9 16 9 16 9 16 Z " fill="#030303" transform="translate(342,265)"/>
<path d="M0 0 C3.5 0.6875 3.5 0.6875 5.9375 3.3125 C7.55579543 6.80801813 7.86127484 8.89411419 7.5 12.6875 C6.51 13.0175 5.52 13.3475 4.5 13.6875 C4.5 14.3475 4.5 15.0075 4.5 15.6875 C0.79768896 16.72070308 -0.86007375 17.028794 -4.3125 15.1875 C-7.15965128 11.93361283 -7.57548906 9.99037623 -7.5 5.6875 C-5.48217383 1.73592375 -4.37365478 0.85911076 0 0 Z " fill="#090A0A" transform="translate(185.5,303.3125)"/>
<path d="M0 0 C-0.185625 0.78375 -0.37125 1.5675 -0.5625 2.375 C-1.25962266 4.97089775 -1.25962266 4.97089775 0 7 C-1 9 -1 9 -3.5 9.875 C-6.1142756 10.73470219 -6.1142756 10.73470219 -6.9375 12.875 C-7.01457743 15.49563262 -6.42801305 16.82040113 -5 19 C-4.34 19.33 -3.68 19.66 -3 20 C-0.66398767 21.79693256 -0.05896945 22.59704207 0.375 25.5625 C0.25125 26.366875 0.1275 27.17125 0 28 C-0.99 28.66 -1.98 29.32 -3 30 C-3 29.34 -3 28.68 -3 28 C-4.65 28 -6.3 28 -8 28 C-8.33 27.34 -8.66 26.68 -9 26 C-8.34 25.67 -7.68 25.34 -7 25 C-7.20756941 19.79215353 -7.20756941 19.79215353 -9.3125 15.25 C-9.869375 14.8375 -10.42625 14.425 -11 14 C-14.94366197 10.61971831 -14.94366197 10.61971831 -15.25 7.25 C-15.12625 6.13625 -15.12625 6.13625 -15 5 C-13.68 4.67 -12.36 4.34 -11 4 C-10.67 5.32 -10.34 6.64 -10 8 C-9.34 7.67 -8.68 7.34 -8 7 C-7.34444881 4.47266765 -7.34444881 4.47266765 -7 2 C-7.66 2 -8.32 2 -9 2 C-9 1.34 -9 0.68 -9 0 C-3.375 -1.125 -3.375 -1.125 0 0 Z " fill="#08080A" transform="translate(501,266)"/>
<path d="M0 0 C2.01822917 0.06510417 4.03645833 0.13020833 6.0546875 0.1953125 C6.0546875 0.8553125 6.0546875 1.5153125 6.0546875 2.1953125 C7.0446875 2.5253125 8.0346875 2.8553125 9.0546875 3.1953125 C8.91431229 5.00824339 8.76723861 6.8206568 8.6171875 8.6328125 C8.53597656 9.64214844 8.45476562 10.65148437 8.37109375 11.69140625 C8.0546875 14.1953125 8.0546875 14.1953125 7.0546875 15.1953125 C5.36859784 15.26736761 3.67968091 15.27917318 1.9921875 15.2578125 C1.07308594 15.24878906 0.15398437 15.23976563 -0.79296875 15.23046875 C-1.50324219 15.21886719 -2.21351563 15.20726562 -2.9453125 15.1953125 C-4.24621081 12.59351587 -4.11371328 10.5983937 -4.1328125 7.6953125 C-4.14699219 6.715625 -4.16117187 5.7359375 -4.17578125 4.7265625 C-3.89366116 1.62802318 -3.2327172 0.32457 0 0 Z " fill="#111011" transform="translate(379.9453125,303.8046875)"/>
<path d="M0 0 C2.875 1.9375 2.875 1.9375 5 5 C5.22131357 8.13077738 4.89250194 10.99150009 4 14 C2 16 2 16 -0.8125 16.4375 C-5.07725017 15.85214213 -6.39140929 14.35390234 -9 11 C-10 8.5 -10 8.5 -10 6 C-7.63078923 1.03593935 -5.59156172 -0.78021791 0 0 Z " fill="#090A0A" transform="translate(342,304)"/>
<path d="M0 0 C-0.5259375 1.175625 -0.5259375 1.175625 -1.0625 2.375 C-1.371875 3.24125 -1.68125 4.1075 -2 5 C-1.67 5.66 -1.34 6.32 -1 7 C-8.45795822 12.22057075 -14.75702582 15.57208453 -24 16 C-23.67 15.34 -23.34 14.68 -23 14 C-22.34 14.33 -21.68 14.66 -21 15 C-20.67 14.01 -20.34 13.02 -20 12 C-19.67 12.33 -19.34 12.66 -19 13 C-17.90341064 9.71023192 -18.20046862 8.28696233 -19 5 C-17.3962669 4.35309078 -15.79199694 3.70751236 -14.1875 3.0625 C-12.84751953 2.52302734 -12.84751953 2.52302734 -11.48046875 1.97265625 C-7.40981775 0.37644822 -4.3673001 -0.09705111 0 0 Z " fill="#121214" transform="translate(358,209)"/>
<path d="M0 0 C0.56016748 1.40945366 1.09748502 2.8280031 1.625 4.25 C1.92664063 5.03890625 2.22828125 5.8278125 2.5390625 6.640625 C3 9 3 9 2.2109375 11.234375 C1 13 1 13 -1 14 C-2.875 14.203125 -2.875 14.203125 -5 14.25 C-6.051875 14.28867187 -6.051875 14.28867187 -7.125 14.328125 C-7.74375 14.21984375 -8.3625 14.1115625 -9 14 C-11.34075925 10.48886112 -11.70663502 8.1804509 -12 4 C-11.25 1.625 -11.25 1.625 -10 0 C-6.30581799 -1.231394 -3.7943739 -0.64432764 0 0 Z " fill="#010102" transform="translate(278,305)"/>
<path d="M0 0 C1.875 -0.328125 1.875 -0.328125 4 -0.25 C4.70125 -0.23453125 5.4025 -0.2190625 6.125 -0.203125 C8 0 8 0 10 1 C10.02685412 3.31243792 10.04632841 5.6249627 10.0625 7.9375 C10.07410156 9.22527344 10.08570313 10.51304687 10.09765625 11.83984375 C10 15 10 15 9 16 C3.26388889 16.27314815 3.26388889 16.27314815 1 16 C-2.02907931 12.97092069 -1.96404875 10.68307369 -2.1875 6.4375 C-2 3 -2 3 0 0 Z " fill="#000000" transform="translate(401,304)"/>
<path d="M0 0 C1.03125 0.00322266 2.0625 0.00644531 3.125 0.00976562 C4.20523438 0.01814453 5.28546875 0.02652344 6.3984375 0.03515625 C8.03039062 0.04192383 8.03039062 0.04192383 9.6953125 0.04882812 C12.38807539 0.06063849 15.08072938 0.07710847 17.7734375 0.09765625 C17.4434375 0.75765625 17.1134375 1.41765625 16.7734375 2.09765625 C11.26315229 3.37575304 5.3966578 3.19989662 -0.2265625 3.09765625 C-0.1028125 3.77828125 0.0209375 4.45890625 0.1484375 5.16015625 C-0.35155129 9.07673511 -2.17339752 10.72891534 -4.81640625 13.546875 C-7.1830882 16.14956955 -7.99525705 19.19114867 -9.15234375 22.47265625 C-9.72952148 24.07367188 -9.72952148 24.07367188 -10.31835938 25.70703125 C-11.13082539 27.96373685 -11.93295974 30.22418937 -12.72460938 32.48828125 C-13.11326172 33.555625 -13.50191406 34.62296875 -13.90234375 35.72265625 C-14.25208252 36.70492187 -14.60182129 37.6871875 -14.9621582 38.69921875 C-16.4229844 41.47024725 -17.28659747 42.13574972 -20.2265625 43.09765625 C-26.55989583 43.54210069 -26.55989583 43.54210069 -30.2265625 41.09765625 C-30.2265625 40.43765625 -30.2265625 39.77765625 -30.2265625 39.09765625 C-26.2265625 39.09765625 -26.2265625 39.09765625 -23.6640625 39.72265625 C-20.97462231 40.41702943 -20.97462231 40.41702943 -18.2265625 38.09765625 C-17.21850695 35.91868133 -17.21850695 35.91868133 -16.5390625 33.47265625 C-16.28769531 32.65539062 -16.03632813 31.838125 -15.77734375 30.99609375 C-15.59558594 30.36960937 -15.41382813 29.743125 -15.2265625 29.09765625 C-14.5665625 29.09765625 -13.9065625 29.09765625 -13.2265625 29.09765625 C-13.1028125 27.88078125 -12.9790625 26.66390625 -12.8515625 25.41015625 C-12.4269 22.00089391 -11.6044123 19.2586058 -10.2265625 16.09765625 C-9.9171875 14.86015625 -9.6078125 13.62265625 -9.2890625 12.34765625 C-8.763125 10.73890625 -8.763125 10.73890625 -8.2265625 9.09765625 C-7.2365625 8.76765625 -6.2465625 8.43765625 -5.2265625 8.09765625 C-4.8965625 6.11765625 -4.5665625 4.13765625 -4.2265625 2.09765625 C-5.2165625 1.76765625 -6.2065625 1.43765625 -7.2265625 1.09765625 C-4.66933021 -0.1809599 -2.85919148 -0.01570984 0 0 Z " fill="#020304" transform="translate(164.2265625,252.90234375)"/>
<path d="M0 0 C1.39456452 0.00667256 2.78911118 0.01863093 4.18359375 0.03515625 C4.89451172 0.03966797 5.60542969 0.04417969 6.33789062 0.04882812 C8.09899388 0.06064761 9.86005411 0.07858362 11.62109375 0.09765625 C12.51335849 4.79516768 12.98011271 7.77278816 10.62109375 12.09765625 C6.99609375 13.47265625 6.99609375 13.47265625 3.62109375 14.09765625 C3.62109375 13.43765625 3.62109375 12.77765625 3.62109375 12.09765625 C2.96109375 12.09765625 2.30109375 12.09765625 1.62109375 12.09765625 C1.24984375 11.13859375 1.24984375 11.13859375 0.87109375 10.16015625 C-0.19453058 7.91024084 -0.19453058 7.91024084 -2.50390625 7.34765625 C-3.12265625 7.26515625 -3.74140625 7.18265625 -4.37890625 7.09765625 C-4.42144981 5.09810879 -4.41971408 3.09723989 -4.37890625 1.09765625 C-3.37890625 0.09765625 -3.37890625 0.09765625 0 0 Z " fill="#131212" transform="translate(320.37890625,264.90234375)"/>
<path d="M0 0 C6.46235679 -0.36579378 6.46235679 -0.36579378 8.7109375 1.1640625 C10.48937809 3.69699304 10.36560189 5.49484494 10.3125 8.5625 C10.30863281 9.53316406 10.30476563 10.50382812 10.30078125 11.50390625 C10 14 10 14 8 16 C4.5 16.25 4.5 16.25 1 16 C-1.43357796 13.56642204 -1.41100776 12.48501131 -1.75 9.125 C-1.84796875 8.26132812 -1.9459375 7.39765625 -2.046875 6.5078125 C-1.99583479 3.77716101 -1.39884193 2.31346935 0 0 Z " fill="#0B0A10" transform="translate(293,304)"/>
<path d="M0 0 C1.258125 0.33 2.51625 0.66 3.8125 1 C6.38987302 1.67603227 8.30212925 2 11 2 C11.33 2.99 11.66 3.98 12 5 C11.34 5 10.68 5 10 5 C10 10.28 10 15.56 10 21 C9.01 20.34 8.02 19.68 7 19 C6.48050781 19.48210937 5.96101563 19.96421875 5.42578125 20.4609375 C-2.89795918 28 -2.89795918 28 -9 28 C-9.33 28.99 -9.66 29.98 -10 31 C-11.32 30.67 -12.64 30.34 -14 30 C-14 29.01 -14 28.02 -14 27 C-14.66 26.67 -15.32 26.34 -16 26 C-15.67 25.34 -15.34 24.68 -15 24 C-12.9375 23.375 -12.9375 23.375 -11 23 C-11 23.99 -11 24.98 -11 26 C-4.47569597 26 -1.49976392 23.280288 3.1796875 18.91015625 C5.06043198 17.12354842 5.06043198 17.12354842 6 15 C5.01 14.01 4.02 13.02 3 12 C4.32 12 5.64 12 7 12 C7 11.34 7 10.68 7 10 C6.34 10 5.68 10 5 10 C4.87625 9.13375 4.87625 9.13375 4.75 8.25 C3.7973369 5.39201069 2.13946926 4.07045412 0 2 C0 1.34 0 0.68 0 0 Z M5 4 C6 6 6 6 6 6 Z " fill="#020203" transform="translate(414,256)"/>
<path d="M0 0 C0.66 0.33 1.32 0.66 2 1 C1.83628906 1.68449219 1.67257813 2.36898438 1.50390625 3.07421875 C0.93552966 6.3743278 0.90369233 9.46554069 0.9375 12.8125 C0.95103516 14.55466797 0.95103516 14.55466797 0.96484375 16.33203125 C0.97644531 17.21246094 0.98804688 18.09289062 1 19 C0.360625 19.12375 -0.27875 19.2475 -0.9375 19.375 C-1.618125 19.58125 -2.29875 19.7875 -3 20 C-3.33 20.66 -3.66 21.32 -4 22 C-5.32 22 -6.64 22 -8 22 C-8.62721417 16.95988611 -9 12.08375115 -9 7 C-9.33 6.34 -9.66 5.68 -10 5 C-9.34 5 -8.68 5 -8 5 C-7.67 4.01 -7.34 3.02 -7 2 C-4.525 2.99 -4.525 2.99 -2 4 C-1.34 2.68 -0.68 1.36 0 0 Z " fill="#121213" transform="translate(211,265)"/>
<path d="M0 0 C0.99 0 1.98 0 3 0 C3.6875 3.3125 3.6875 3.3125 4 7 C2.5625 8.9375 2.5625 8.9375 1 10 C2.32 10.66 3.64 11.32 5 12 C5.33 9.69 5.66 7.38 6 5 C6.33 5 6.66 5 7 5 C7 8.3 7 11.6 7 15 C5.68 15 4.36 15 3 15 C2.67 15.66 2.34 16.32 2 17 C1.01 16.34 0.02 15.68 -1 15 C-1.33 15.33 -1.66 15.66 -2 16 C-4.67058851 16.14115161 -7.32432238 16.04247107 -10 16 C-10 13 -10 13 -9 11 C-8.34 11 -7.68 11 -7 11 C-6.67 10.01 -6.34 9.02 -6 8 C-6.66 7.34 -7.32 6.68 -8 6 C-7.01 5.67 -6.02 5.34 -5 5 C-4.67 4.34 -4.34 3.68 -4 3 C-3.01 2.67 -2.02 2.34 -1 2 C-0.67 1.34 -0.34 0.68 0 0 Z " fill="#0B0B0C" transform="translate(462,270)"/>
<path d="M0 0 C1.875 1.5625 1.875 1.5625 3 4 C3.06251288 7.43820861 2.92330955 9.84161471 0.7265625 12.59765625 C-0.8125 14 -0.8125 14 -4 16 C-6.35560128 15.8726702 -7.34378382 15.65621618 -9 14 C-9.07244053 11.98035801 -9.08377188 9.95832876 -9.0625 7.9375 C-9.05347656 6.83277344 -9.04445312 5.72804688 -9.03515625 4.58984375 C-9.02355469 3.73519531 -9.01195312 2.88054687 -9 2 C-5.78713928 0.29465992 -3.68449874 -0.56684596 0 0 Z " fill="#0B0B0B" transform="translate(165,303)"/>
<path d="M0 0 C0.99 0 1.98 0 3 0 C3 0.66 3 1.32 3 2 C4.32 2.33 5.64 2.66 7 3 C6 6 6 6 4.25 7.1875 C1.70039426 8.10819096 -0.30923081 8.14948718 -3 8 C-3 8.66 -3 9.32 -3 10 C-8.0302076 9.47462276 -13.01885239 8.89405214 -18 8 C-18 7.67 -18 7.34 -18 7 C-15.69 6.34 -13.38 5.68 -11 5 C-11.33 3.68 -11.66 2.36 -12 1 C-7.49702686 -2.54779702 -5.23684388 -1.84259322 0 0 Z " fill="#1C1D20" transform="translate(361,134)"/>
<path d="M0 0 C0.66 0.33 1.32 0.66 2 1 C2.21278058 5.46839215 1.59138085 8.82262526 0 13 C0.66 13 1.32 13 2 13 C1.67 14.32 1.34 15.64 1 17 C0.01 16.67 -0.98 16.34 -2 16 C-2 18.64 -2 21.28 -2 24 C1.3 24 4.6 24 8 24 C8 24.33 8 24.66 8 25 C6.95199219 24.98839844 5.90398437 24.97679687 4.82421875 24.96484375 C3.44531428 24.95546345 2.06640789 24.9463635 0.6875 24.9375 C-0.00279297 24.92912109 -0.69308594 24.92074219 -1.40429688 24.91210938 C-4.5483025 24.89692094 -6.99420019 24.99806673 -10 26 C-10.66 25.34 -11.32 24.68 -12 24 C-11.38125 23.278125 -10.7625 22.55625 -10.125 21.8125 C-7.68456627 18.58251419 -6.53648277 15.68961241 -5.3203125 11.859375 C-3.93761835 7.55449218 -2.56171312 3.78157651 0 0 Z M-2 10 C-1 12 -1 12 -1 12 Z " fill="#010102" transform="translate(201,271)"/>
<path d="M0 0 C0.33 0.66 0.66 1.32 1 2 C1.99 2.33 2.98 2.66 4 3 C6.12710211 7.0966411 7.42160623 10.36233145 7 15 C-2.375 15 -2.375 15 -6 13 C-5.53428232 8.24967963 -4.85175998 4.87839357 -2 1 C-1.34 0.67 -0.68 0.34 0 0 Z " fill="#070B0B" transform="translate(456,304)"/>
<path d="M0 0 C-1.75 3.875 -1.75 3.875 -4 5 C-4 5.99 -4 6.98 -4 8 C-4.66 8 -5.32 8 -6 8 C-6 8.99 -6 9.98 -6 11 C-9.3 11 -12.6 11 -16 11 C-14.68 10.67 -13.36 10.34 -12 10 C-12 9.34 -12 8.68 -12 8 C-14.31 7.67 -16.62 7.34 -19 7 C-18.875 4.6875 -18.875 4.6875 -18 2 C-12.61387826 -2.36712573 -6.41852603 -0.86203505 0 0 Z " fill="#151717" transform="translate(289,286)"/>
<path d="M0 0 C1.65 0 3.3 0 5 0 C5 0.66 5 1.32 5 2 C5.99 2.33 6.98 2.66 8 3 C9.20577428 7.94367454 8.6290678 11.20862412 7 16 C4.42468508 15.65198447 2.45167104 15.29035995 0.25 13.875 C-1.6784994 10.9822509 -1.82235346 8.43449979 -2 5 C-1.0625 2.0625 -1.0625 2.0625 0 0 Z " fill="#030404" transform="translate(207,304)"/>
<path d="M0 0 C2.33944736 0.28730055 4.6739143 0.61936779 7 1 C7.33 2.65 7.66 4.3 8 6 C7.34 6 6.68 6 6 6 C6.15597656 6.55429687 6.31195313 7.10859375 6.47265625 7.6796875 C6.76462891 8.76636719 6.76462891 8.76636719 7.0625 9.875 C7.25972656 10.59429687 7.45695312 11.31359375 7.66015625 12.0546875 C8 14 8 14 7 16 C6.34 16.33 5.68 16.66 5 17 C4.67 15.35 4.34 13.7 4 12 C3.34 12 2.68 12 2 12 C1.67 14.31 1.34 16.62 1 19 C0.01 18.67 -0.98 18.34 -2 18 C-2 15.23447551 -1.62016787 13.27429385 -0.9375 10.625 C-0.09981382 7.05319922 0.00770704 4.58295837 -1 1 C-0.67 0.67 -0.34 0.34 0 0 Z " fill="#0B0C0C" transform="translate(332,265)"/>
<path d="M0 0 C2.72869407 0.03287583 5.2966618 0.56397771 8 1 C8.33 2.65 8.66 4.3 9 6 C7.02 6.99 7.02 6.99 5 8 C5.33 10.31 5.66 12.62 6 15 C5.01 15.33 4.02 15.66 3 16 C-0.08031355 13.49671489 -0.64066484 11.28901302 -1.3125 7.4375 C-1.49425781 6.46683594 -1.67601562 5.49617188 -1.86328125 4.49609375 C-1.90839844 3.67238281 -1.95351562 2.84867187 -2 2 C-1.34 1.34 -0.68 0.68 0 0 Z " fill="#0F0F10" transform="translate(247,303)"/>
<path d="M0 0 C2.4377963 -0.05397335 4.87439685 -0.09365616 7.3125 -0.125 C8.00279297 -0.14175781 8.69308594 -0.15851563 9.40429688 -0.17578125 C13.17135396 -0.21217794 14.78431704 -0.14378864 18 2 C10.25 3.125 10.25 3.125 8 2 C8.33 6.29 8.66 10.58 9 15 C10.65 14.67 12.3 14.34 14 14 C14.99 14 15.98 14 17 14 C16.34 15.32 15.68 16.64 15 18 C11.36179956 18.33074549 9.6226914 18.48805542 6.6875 16.1875 C5 14 5 14 4 11 C3.01 11.33 2.02 11.66 1 12 C1 11.01 1 10.02 1 9 C1.99 8.67 2.98 8.34 4 8 C5.22969878 4.48809191 5.22969878 4.48809191 6 1 C4.02 1.66 2.04 2.32 0 3 C0 2.01 0 1.02 0 0 Z " fill="#000104" transform="translate(212,253)"/>
<path d="M0 0 C1.98 0 3.96 0 6 0 C5.67 1.98 5.34 3.96 5 6 C3.96939453 6.19916016 3.96939453 6.19916016 2.91796875 6.40234375 C1.56638672 6.66724609 1.56638672 6.66724609 0.1875 6.9375 C-0.70582031 7.11152344 -1.59914063 7.28554687 -2.51953125 7.46484375 C-5.11397171 7.97741153 -5.11397171 7.97741153 -8 9 C-8.99 9 -9.98 9 -11 9 C-11 9.66 -11 10.32 -11 11 C-11.99 10.67 -12.98 10.34 -14 10 C-13 7 -13 7 -8 4 C-14.93 3.505 -14.93 3.505 -22 3 C-22 2.67 -22 2.34 -22 2 C-14.74 2 -7.48 2 0 2 C0 1.34 0 0.68 0 0 Z " fill="#37373A" transform="translate(380,151)"/>
<path d="M0 0 C1.5778125 0.433125 1.5778125 0.433125 3.1875 0.875 C3.1875 1.535 3.1875 2.195 3.1875 2.875 C3.8475 2.875 4.5075 2.875 5.1875 2.875 C4.8575 3.535 4.5275 4.195 4.1875 4.875 C3.8575 5.865 3.5275 6.855 3.1875 7.875 C2.5275 7.875 1.8675 7.875 1.1875 7.875 C-0.01878008 10.20714148 -0.9779738 12.37142139 -1.8125 14.875 C-3.4625 14.545 -5.1125 14.215 -6.8125 13.875 C-6.4825 12.885 -6.1525 11.895 -5.8125 10.875 C-5.1525 10.875 -4.4925 10.875 -3.8125 10.875 C-3.4825 9.885 -3.1525 8.895 -2.8125 7.875 C-4.4625 7.875 -6.1125 7.875 -7.8125 7.875 C-8.1425 7.215 -8.4725 6.555 -8.8125 5.875 C-4.75096154 -0.15576923 -4.75096154 -0.15576923 0 0 Z " fill="#0E0D0D" transform="translate(290.8125,279.125)"/>
<path d="M0 0 C2.8842454 0.34485543 3.8207818 0.78255407 5.703125 3.06640625 C6.21359375 3.89011719 6.7240625 4.71382813 7.25 5.5625 C8.03117187 6.80193359 8.03117187 6.80193359 8.828125 8.06640625 C9.21484375 8.70449219 9.6015625 9.34257812 10 10 C9.01 10.495 9.01 10.495 8 11 C8.33 11.99 8.66 12.98 9 14 C8.01 14 7.02 14 6 14 C5.67 14.66 5.34 15.32 5 16 C4.66269158 14.56342755 4.33030409 13.12569907 4 11.6875 C3.814375 10.88699219 3.62875 10.08648437 3.4375 9.26171875 C3 7 3 7 3 4 C1.54166642 2.37485532 1.54166642 2.37485532 0 1 C0 0.67 0 0.34 0 0 Z M16 1 C17.65 1 19.3 1 21 1 C20.01 2.485 20.01 2.485 19 4 C18.34 4 17.68 4 17 4 C15.18698242 8.43093198 15.18698242 8.43093198 16 13 C15.01 13 14.02 13 13 13 C12.34 11.02 11.68 9.04 11 7 C11.66 7 12.32 7 13 7 C13 6.34 13 5.68 13 5 C13.66 5 14.32 5 15 5 C15.33 3.68 15.66 2.36 16 1 Z " fill="#090A0B" transform="translate(342,265)"/>
<path d="M0 0 C4.58481846 1.57193776 8.25548881 3.98896393 12.1875 6.75 C12.81591797 7.16765625 13.44433594 7.5853125 14.09179688 8.015625 C18.15358733 10.86539456 19.91544001 12.95347598 21 18 C18 19 18 19 15 18 C15 17.34 15 16.68 15 16 C15.66 15.67 16.32 15.34 17 15 C16.236875 14.54625 15.47375 14.0925 14.6875 13.625 C12.76367186 12.46175508 10.87058776 11.2470585 9 10 C9 9.34 9 8.68 9 8 C8.01 8.33 7.02 8.66 6 9 C3 8 3 8 1.3125 5.625 C0 3 0 3 0 0 Z M4 4 C3.67 4.66 3.34 5.32 3 6 C3.66 6 4.32 6 5 6 C4.67 5.34 4.34 4.68 4 4 Z " fill="#09090B" transform="translate(364,117)"/>
<path d="M0 0 C1.98 0.495 1.98 0.495 4 1 C4 1.66 4 2.32 4 3 C4.66 3 5.32 3 6 3 C6.02698189 4.62490954 6.04638757 6.24994633 6.0625 7.875 C6.07410156 8.77992188 6.08570313 9.68484375 6.09765625 10.6171875 C6 13 6 13 5 15 C0.125 14.125 0.125 14.125 -1 13 C-1.09879565 11.189715 -1.12971514 9.37547273 -1.125 7.5625 C-1.12757813 6.57378906 -1.13015625 5.58507812 -1.1328125 4.56640625 C-1 2 -1 2 0 0 Z " fill="#020202" transform="translate(359,304)"/>
<path d="M0 0 C1.60332791 -0.08121924 3.20784026 -0.13929134 4.8125 -0.1875 C6.15248047 -0.23970703 6.15248047 -0.23970703 7.51953125 -0.29296875 C10 0 10 0 11.65039062 1.18554688 C13.51163079 3.68785095 13.26175266 5.23843352 13.07421875 8.32421875 C12.99204102 9.86625977 12.99204102 9.86625977 12.90820312 11.43945312 C12.83537109 12.51130859 12.76253906 13.58316406 12.6875 14.6875 C12.62626953 15.77095703 12.56503906 16.85441406 12.50195312 17.97070312 C12.3486115 20.64828378 12.18075343 23.32415282 12 26 C10.27278973 22.75113816 9.70877303 20.37756331 9.5 16.6875 C9.16723327 12.17397302 8.42835335 8.28506005 7 4 C4.36 3.67 1.72 3.34 -1 3 C-0.67 2.01 -0.34 1.02 0 0 Z " fill="#020305" transform="translate(424,249)"/>
<path d="M0 0 C3.91841827 1.30613942 6.32640809 2.83129848 9 6 C9 6.66 9 7.32 9 8 C9.556875 8.20625 10.11375 8.4125 10.6875 8.625 C13.92501302 10.55000774 15.68231141 13.03850902 18 16 C17.01 16.99 16.02 17.98 15 19 C11.38061905 16.35883012 9.01293477 14.02586954 7 10 C7 9.34 7 8.68 7 8 C5.824375 7.3503125 5.824375 7.3503125 4.625 6.6875 C1.58313785 4.73201719 1.01018099 3.39788151 0 0 Z " fill="#020203" transform="translate(355,93)"/>
<path d="M0 0 C0.99 0.5259375 0.99 0.5259375 2 1.0625 C2.99 1.0625 3.98 1.0625 5 1.0625 C5.66 1.7225 6.32 2.3825 7 3.0625 C7.33 2.7325 7.66 2.4025 8 2.0625 C9.66617115 2.02186168 11.33388095 2.019779 13 2.0625 C11.02 5.0325 11.02 5.0325 9 8.0625 C8.67 7.4025 8.34 6.7425 8 6.0625 C7.21625 6.536875 6.4325 7.01125 5.625 7.5 C4.11051322 8.40148023 2.5764103 9.27429485 1 10.0625 C1 9.0725 1 8.0825 1 7.0625 C0.38125 7.02125 -0.2375 6.98 -0.875 6.9375 C-1.57625 6.64875 -2.2775 6.36 -3 6.0625 C-4.25 3 -4.25 3 -5 0.0625 C-2 -0.9375 -2 -0.9375 0 0 Z M3 4.0625 C2.67 4.7225 2.34 5.3825 2 6.0625 C2.66 6.0625 3.32 6.0625 4 6.0625 C3.67 5.4025 3.34 4.7425 3 4.0625 Z " fill="#0C0C11" transform="translate(376,284.9375)"/>
<path d="M0 0 C0.66 0.33 1.32 0.66 2 1 C2.33 6.61 2.66 12.22 3 18 C3.66 18.33 4.32 18.66 5 19 C5 19.99 5 20.98 5 22 C5.66 22 6.32 22 7 22 C7 24.31 7 26.62 7 29 C6.01 29.33 5.02 29.66 4 30 C3.67 27.36 3.34 24.72 3 22 C2.01 22 1.02 22 0 22 C-0.86286752 18.27460372 -1.13474793 14.82118675 -1.125 11 C-1.12757813 9.989375 -1.13015625 8.97875 -1.1328125 7.9375 C-1.00826727 5.18285256 -0.62110865 2.68161197 0 0 Z " fill="#010103" transform="translate(212,266)"/>
<path d="M0 0 C2.4375 3 2.4375 3 4 6 C3.01 6.66 2.02 7.32 1 8 C0.67 7.01 0.34 6.02 0 5 C-1.98 5 -3.96 5 -6 5 C-6.33 6.98 -6.66 8.96 -7 11 C-8.32 10.34 -9.64 9.68 -11 9 C-10.67470941 6.07238473 -10.40430823 3.67384706 -8.875 1.125 C-5.75667576 -0.74599454 -3.53539506 -0.55822027 0 0 Z " fill="#0C0E0E" transform="translate(189,304)"/>
<path d="M0 0 C2.31 0.33 4.62 0.66 7 1 C6.67 1.99 6.34 2.98 6 4 C4.35 4 2.7 4 1 4 C1 4.33 1 4.66 1 5 C3.31 5.66 5.62 6.32 8 7 C7.67 8.98 7.34 10.96 7 13 C5.02 13 3.04 13 1 13 C-0.88649506 9.73007522 -1.67972144 6.76327304 -2 3 C-1.34 2.01 -0.68 1.02 0 0 Z " fill="#111213" transform="translate(403,305)"/>
<path d="M0 0 C2.31 0 4.62 0 7 0 C6.67 0.99 6.34 1.98 6 3 C4.68 3 3.36 3 2 3 C1.67 3.66 1.34 4.32 1 5 C2.98 5.66 4.96 6.32 7 7 C6.360625 7.4125 5.72125 7.825 5.0625 8.25 C2.79009069 10.17810487 2.39803561 11.11424181 2 14 C3.32 14.33 4.64 14.66 6 15 C6 15.33 6 15.66 6 16 C3.625 16.125 3.625 16.125 1 16 C-1.43357796 13.56642204 -1.41100776 12.48501131 -1.75 9.125 C-1.84796875 8.26132812 -1.9459375 7.39765625 -2.046875 6.5078125 C-1.99583479 3.77716101 -1.39884193 2.31346935 0 0 Z " fill="#030303" transform="translate(293,304)"/>
<path d="M0 0 C0.66 0.33 1.32 0.66 2 1 C2 1.66 2 2.32 2 3 C3.32 3.33 4.64 3.66 6 4 C5.67 4.99 5.34 5.98 5 7 C-1.73742646 7.11044961 -8.29980211 6.70132913 -15 6 C-15 5.67 -15 5.34 -15 5 C-10.545 4.505 -10.545 4.505 -6 4 C-6.99 3.01 -7.98 2.02 -9 1 C-5.77390955 -0.07536348 -3.37822416 -0.14375422 0 0 Z " fill="#1E2226" transform="translate(380,139)"/>
<path d="M0 0 C2.64 0 5.28 0 8 0 C8 0.99 8 1.98 8 3 C10.97 3.495 10.97 3.495 14 4 C13.67 5.32 13.34 6.64 13 8 C9.6875 9.125 9.6875 9.125 6 10 C5.01 9.34 4.02 8.68 3 8 C3.66 8 4.32 8 5 8 C4.649375 7.38125 4.29875 6.7625 3.9375 6.125 C3.628125 5.42375 3.31875 4.7225 3 4 C3.33 3.34 3.66 2.68 4 2 C3.01 2.33 2.02 2.66 1 3 C0.67 2.01 0.34 1.02 0 0 Z M15 2 C15.33 2.66 15.66 3.32 16 4 C15.34 3.67 14.68 3.34 14 3 C14.33 2.67 14.66 2.34 15 2 Z " fill="#0C0D0D" transform="translate(364,287)"/>
<path d="M0 0 C0.99 0.33 1.98 0.66 3 1 C2.06027344 1.77923828 2.06027344 1.77923828 1.1015625 2.57421875 C0.28429687 3.27160156 -0.53296875 3.96898437 -1.375 4.6875 C-2.18710937 5.37199219 -2.99921875 6.05648437 -3.8359375 6.76171875 C-6.09534323 9.09861313 -7.02155853 10.9302743 -8 14 C-7.34 14.33 -6.68 14.66 -6 15 C-7.43429001 15.67354499 -8.87257057 16.33859701 -10.3125 17 C-11.51326172 17.556875 -11.51326172 17.556875 -12.73828125 18.125 C-15 19 -15 19 -18 19 C-18 18.01 -18 17.02 -18 16 C-16.68 16.33 -15.36 16.66 -14 17 C-13.95875 16.278125 -13.9175 15.55625 -13.875 14.8125 C-12.65572281 10.89339473 -10.16148648 9.50284346 -7 7 C-6.67 6.01 -6.34 5.02 -6 4 C-4.35 3.67 -2.7 3.34 -1 3 C-0.67 2.01 -0.34 1.02 0 0 Z " fill="#000001" transform="translate(381,177)"/>
<path d="M0 0 C0.66 0 1.32 0 2 0 C2.66 2.31 3.32 4.62 4 7 C4.99 7 5.98 7 7 7 C7 7.66 7 8.32 7 9 C9.12560437 8.69163768 11.25047065 8.37818386 13.375 8.0625 C14.55835938 7.88847656 15.74171875 7.71445312 16.9609375 7.53515625 C19.90702381 7.16537214 19.90702381 7.16537214 22 6 C22.33 5.01 22.66 4.02 23 3 C22.67 5.31 22.34 7.62 22 10 C17.6850038 11.24241508 13.81366704 10.95933112 9.375 10.6875 C8.59898437 10.65205078 7.82296875 10.61660156 7.0234375 10.58007812 C1.24394441 10.24394441 1.24394441 10.24394441 -1 8 C-1.1875 4.4375 -1.1875 4.4375 -1 1 C-0.67 0.67 -0.34 0.34 0 0 Z " fill="#030304" transform="translate(227,286)"/>
<path d="M0 0 C0.99 0 1.98 0 3 0 C5.21538462 7.38461538 5.21538462 7.38461538 4.125 10.5 C3.75375 10.995 3.3825 11.49 3 12 C1.68 11.67 0.36 11.34 -1 11 C-0.67 10.01 -0.34 9.02 0 8 C-1.65 8 -3.3 8 -5 8 C-5.99 6.02 -6.98 4.04 -8 2 C-4 3 -4 3 0 4 C0 2.68 0 1.36 0 0 Z " fill="#504F4F" transform="translate(276,306)"/>
<path d="M0 0 C0.66 0 1.32 0 2 0 C1.85962479 1.81293089 1.71255111 3.6253443 1.5625 5.4375 C1.48128906 6.44683594 1.40007812 7.45617187 1.31640625 8.49609375 C1 11 1 11 0 12 C-2.33297433 12.04092937 -4.66705225 12.04241723 -7 12 C-7 9.36 -7 6.72 -7 4 C-6.34 3.67 -5.68 3.34 -5 3 C-5 3.66 -5 4.32 -5 5 C-2.46326712 3.6446674 -2.46326712 3.6446674 0 2 C0 1.34 0 0.68 0 0 Z " fill="#020303" transform="translate(387,307)"/>
<path d="M0 0 C1.98 0.495 1.98 0.495 4 1 C4 9.58 4 18.16 4 27 C1.525 26.01 1.525 26.01 -1 25 C-0.51080078 24.27296875 -0.51080078 24.27296875 -0.01171875 23.53125 C1.44123164 19.8960691 1.24961716 16.35126403 1.1875 12.5 C1.18685547 11.74074219 1.18621094 10.98148437 1.18554688 10.19921875 C1.15747799 6.63758859 0.95717839 3.42579159 0 0 Z " fill="#000000" transform="translate(165,261)"/>
<path d="M0 0 C1.65 0 3.3 0 5 0 C5.33 0.66 5.66 1.32 6 2 C6.66 1.67 7.32 1.34 8 1 C8.2475 1.61875 8.495 2.2375 8.75 2.875 C10.20628639 5.35068687 11.37812506 5.95125002 14 7 C11 9 11 9 9.109375 8.75390625 C6.76636073 7.91649559 4.51415132 6.96968663 2.25 5.9375 C1.45078125 5.57527344 0.6515625 5.21304688 -0.171875 4.83984375 C-0.77515625 4.56269531 -1.3784375 4.28554687 -2 4 C-1.34 2.68 -0.68 1.36 0 0 Z " fill="#1C1B1C" transform="translate(368,125)"/>
<path d="M0 0 C0.99 0 1.98 0 3 0 C3 0.66 3 1.32 3 2 C3.99 2.33 4.98 2.66 6 3 C6.92817192 6.62830843 7.26901295 8.41073355 5.6875 11.875 C5.130625 12.57625 4.57375 13.2775 4 14 C3.34 14 2.68 14 2 14 C1.67 12.68 1.34 11.36 1 10 C1.66 10 2.32 10 3 10 C3 9.34 3 8.68 3 8 C1.68 8 0.36 8 -1 8 C-0.67 6.68 -0.34 5.36 0 4 C0.66 4 1.32 4 2 4 C2 3.34 2 2.68 2 2 C1.34 2 0.68 2 0 2 C0 1.34 0 0.68 0 0 Z " fill="#191B1C" transform="translate(209,304)"/>
<path d="M0 0 C1.175625 1.2065625 1.175625 1.2065625 2.375 2.4375 C5.05102395 5.0498091 5.89266242 5.8615828 9.5 6.3125 C12 7 12 7 13.3125 9.0625 C13.539375 9.701875 13.76625 10.34125 14 11 C13.01 12.485 13.01 12.485 12 14 C11.01 13.67 10.02 13.34 9 13 C8.3125 10.9375 8.3125 10.9375 8 9 C7.41734375 8.89816406 6.8346875 8.79632813 6.234375 8.69140625 C3.62780725 7.88482847 2.26464586 6.75842991 0.25 4.9375 C-0.36359375 4.38964844 -0.9771875 3.84179688 -1.609375 3.27734375 C-2.06828125 2.85582031 -2.5271875 2.43429688 -3 2 C-2.01 1.34 -1.02 0.68 0 0 Z " fill="#313336" transform="translate(363,105)"/>
<path d="M0 0 C0.99 0.33 1.98 0.66 3 1 C3 8.92 3 16.84 3 25 C1.68 24.67 0.36 24.34 -1 24 C-0.67 23.05125 -0.34 22.1025 0 21.125 C1.27982911 16.58067926 1.96015271 11.65429955 1 7 C-0.92654352 5.18155317 -0.92654352 5.18155317 -3 4 C-2.67 3.01 -2.34 2.02 -2 1 C-1.34 0.67 -0.68 0.34 0 0 Z " fill="#000000" transform="translate(230,261)"/>
<path d="M0 0 C0.33 0 0.66 0 1 0 C1 3.3 1 6.6 1 10 C-0.32 10 -1.64 10 -3 10 C-3.33 10.66 -3.66 11.32 -4 12 C-4.99 11.34 -5.98 10.68 -7 10 C-7.33 10.33 -7.66 10.66 -8 11 C-10.67058851 11.14115161 -13.32432238 11.04247107 -16 11 C-16 10.01 -16 9.02 -16 8 C-15.07767578 7.90912109 -15.07767578 7.90912109 -14.13671875 7.81640625 C-13.32847656 7.73261719 -12.52023437 7.64882813 -11.6875 7.5625 C-10.88699219 7.48128906 -10.08648437 7.40007812 -9.26171875 7.31640625 C-6.83912821 7.04734307 -6.83912821 7.04734307 -4 6 C-3.01 6.33 -2.02 6.66 -1 7 C-0.67 4.69 -0.34 2.38 0 0 Z " fill="#000000" transform="translate(468,275)"/>
<path d="M0 0 C1.1875 1.6875 1.1875 1.6875 2 4 C1.15625 6.625 1.15625 6.625 -1 9 C-4.24016034 9.64351617 -7.40035075 9.4688019 -10.6875 9.3125 C-11.58017578 9.28994141 -12.47285156 9.26738281 -13.39257812 9.24414062 C-15.59674272 9.18520574 -17.79752672 9.10300818 -20 9 C-20.33 8.01 -20.66 7.02 -21 6 C-19.72382813 5.93941406 -18.44765625 5.87882812 -17.1328125 5.81640625 C-15.46352984 5.73200432 -13.79425963 5.64735614 -12.125 5.5625 C-11.28324219 5.52318359 -10.44148438 5.48386719 -9.57421875 5.44335938 C-8.76855469 5.40146484 -7.96289062 5.35957031 -7.1328125 5.31640625 C-6.38918457 5.27974854 -5.64555664 5.24309082 -4.87939453 5.20532227 C-2.91135688 5.10044135 -2.91135688 5.10044135 -1 4 C-0.34786708 1.97536745 -0.34786708 1.97536745 0 0 Z " fill="#010204" transform="translate(405,288)"/>
<path d="M0 0 C0.20086443 3.71599191 0.1519437 4.77208445 -2 8 C-5.625 9.1875 -5.625 9.1875 -9 10 C-8 7 -8 7 -7 6 C-9.475 5.01 -9.475 5.01 -12 4 C-4 -1.33333333 -4 -1.33333333 0 0 Z " fill="#0A0B0B" transform="translate(386,161)"/>
<path d="M0 0 C0.33 1.32 0.66 2.64 1 4 C-0.98 4.99 -2.96 5.98 -5 7 C-5.99 6.34 -6.98 5.68 -8 5 C-10.29714187 4.97360171 -10.29714187 4.97360171 -12.6875 5.375 C-13.49574219 5.48585938 -14.30398438 5.59671875 -15.13671875 5.7109375 C-16.05904297 5.85402344 -16.05904297 5.85402344 -17 6 C-17 3 -17 3 -15 1 C-12.9937811 1.29359301 -10.99488234 1.63729412 -9 2 C-5.99789734 2.09305049 -3.00262881 2.06005258 0 2 C0 1.34 0 0.68 0 0 Z " fill="#000100" transform="translate(382,280)"/>
<path d="M0 0 C2.61411877 1.06198575 2.87671853 2.31018994 4 4.8125 C1.73692309 6.34613072 -0.53416825 7.86434259 -2.8125 9.375 C-3.45509766 9.81263672 -4.09769531 10.25027344 -4.75976562 10.70117188 C-6.4567518 11.81784154 -8.22577058 12.82314506 -10 13.8125 C-10.99 13.4825 -11.98 13.1525 -13 12.8125 C-11.68 11.8225 -10.36 10.8325 -9 9.8125 C-8.34 10.1425 -7.68 10.4725 -7 10.8125 C-7 10.1525 -7 9.4925 -7 8.8125 C-5.37373596 7.43017557 -3.7074998 6.09312485 -2 4.8125 C-2.66 4.4825 -3.32 4.1525 -4 3.8125 C-4 2.8225 -4 1.8325 -4 0.8125 C-2 -0.1875 -2 -0.1875 0 0 Z " fill="#000008" transform="translate(373,167.1875)"/>
<path d="M0 0 C7.74136601 -0.10920422 15.31395526 0.02840067 23 1 C23 1.66 23 2.32 23 3 C15.74 3 8.48 3 1 3 C0.67 2.01 0.34 1.02 0 0 Z " fill="#000001" transform="translate(262,138)"/>
<path d="M0 0 C1.76462683 3.08809695 2 4.23312136 2 8 C2.67546875 7.90460938 3.3509375 7.80921875 4.046875 7.7109375 C4.93890625 7.60007812 5.8309375 7.48921875 6.75 7.375 C7.63171875 7.25898438 8.5134375 7.14296875 9.421875 7.0234375 C12.22859878 6.99792183 13.63384866 7.55156156 16 9 C16 8.34 16 7.68 16 7 C16.66 7 17.32 7 18 7 C18.33 7.99 18.66 8.98 19 10 C10.585 10.495 10.585 10.495 2 11 C-1 6 -1 6 -0.6875 2.6875 C-0.460625 1.800625 -0.23375 0.91375 0 0 Z " fill="#010506" transform="translate(162,286)"/>
<path d="M0 0 C3.63 0 7.26 0 11 0 C11 0.33 11 0.66 11 1 C8.69 1 6.38 1 4 1 C4.66 1.99 5.32 2.98 6 4 C6.125 7.1875 6.125 7.1875 6 10 C4.68 10 3.36 10 2 10 C2 9.34 2 8.68 2 8 C1.34 8 0.68 8 0 8 C0 5.36 0 2.72 0 0 Z " fill="#08090A" transform="translate(384,254)"/>
<path d="M0 0 C1.1446875 0.3403125 1.1446875 0.3403125 2.3125 0.6875 C2.6425 2.9975 2.9725 5.3075 3.3125 7.6875 C2.3225 8.0175 1.3325 8.3475 0.3125 8.6875 C-0.0175 7.0375 -0.3475 5.3875 -0.6875 3.6875 C-1.3475 3.6875 -2.0075 3.6875 -2.6875 3.6875 C-3.0175 5.9975 -3.3475 8.3075 -3.6875 10.6875 C-4.6775 10.3575 -5.6675 10.0275 -6.6875 9.6875 C-6.6875 6.14847401 -6.46611712 3.81649482 -4.4375 0.875 C-2.6875 -0.3125 -2.6875 -0.3125 0 0 Z " fill="#000305" transform="translate(336.6875,273.3125)"/>
<path d="M0 0 C0.99 0 1.98 0 3 0 C3.28875 0.61875 3.5775 1.2375 3.875 1.875 C4.93720042 4.13325765 4.93720042 4.13325765 7 6 C9 8 9 8 9 11 C6.07120629 10.37240135 3.63904371 9.41377341 1 8 C0.67 8.99 0.34 9.98 0 11 C-1.26026798 8.47946405 -0.91874445 7.1457902 -0.5625 4.375 C-0.46066406 3.55773437 -0.35882813 2.74046875 -0.25390625 1.8984375 C-0.17011719 1.27195312 -0.08632813 0.64546875 0 0 Z " fill="#010202" transform="translate(313,266)"/>
<path d="M0 0 C1.65 1.65 3.3 3.3 5 5 C3 8 3 8 0 9 C0 9.66 0 10.32 0 11 C-1.32 10.67 -2.64 10.34 -4 10 C-4.41176754 6.39703406 -4.1535853 5.21597933 -2 2.1875 C-1.34 1.465625 -0.68 0.74375 0 0 Z " fill="#141312" transform="translate(306,249)"/>
<path d="M0 0 C0.99 0 1.98 0 3 0 C3 0.66 3 1.32 3 2 C2.34 2 1.68 2 1 2 C1.33 3.98 1.66 5.96 2 8 C2.66 8 3.32 8 4 8 C4 8.66 4 9.32 4 10 C4.66 10 5.32 10 6 10 C6.66 13.3 7.32 16.6 8 20 C4.85996878 16.85996878 3.20157923 13.74446658 1.3125 9.8125 C0.99216797 9.15830078 0.67183594 8.50410156 0.34179688 7.83007812 C-0.44428292 6.22272093 -1.22288683 4.61171142 -2 3 C-1.34 2.01 -0.68 1.02 0 0 Z " fill="#05070B" transform="translate(238,175)"/>
<path d="M0 0 C2.64 0 5.28 0 8 0 C8 0.33 8 0.66 8 1 C6.02 1 4.04 1 2 1 C2 1.66 2 2.32 2 3 C2.99 2.67 3.98 2.34 5 2 C5.20086443 5.71599191 5.1519437 6.77208445 3 10 C2.01 9.67 1.02 9.34 0 9 C-0.33 8.01 -0.66 7.02 -1 6 C-1.99 5.67 -2.98 5.34 -4 5 C-3.34 5 -2.68 5 -2 5 C-1.34 3.35 -0.68 1.7 0 0 Z " fill="#111212" transform="translate(490,265)"/>
<path d="M0 0 C1.32 0 2.64 0 4 0 C5 3 5 3 4 6 C2.4221875 6.2165625 2.4221875 6.2165625 0.8125 6.4375 C-2.15460549 6.87526966 -5.06794366 7.37804866 -8 8 C-7.34 7.67 -6.68 7.34 -6 7 C-5.67 6.01 -5.34 5.02 -5 4 C-4.01 3.67 -3.02 3.34 -2 3 C-1.34 2.01 -0.68 1.02 0 0 Z " fill="#000000" transform="translate(467,288)"/>
<path d="M0 0 C0.66 1.32 1.32 2.64 2 4 C3.65 4 5.3 4 7 4 C7.33 4.66 7.66 5.32 8 6 C7.01 6.33 6.02 6.66 5 7 C4.34 6.67 3.68 6.34 3 6 C3 6.99 3 7.98 3 9 C-1.875 7.125 -1.875 7.125 -3 6 C-3.04063832 4.33382885 -3.042721 2.66611905 -3 1 C-2.01 0.67 -1.02 0.34 0 0 Z " fill="#0E0E0F" transform="translate(489,270)"/>
<path d="M0 0 C1.875 1 1.875 1 3.1875 3.9375 C3.875 7 3.875 7 2.875 9 C0.875 9 0.875 9 -0.5 7.75 C-1.03625 7.1725 -1.5725 6.595 -2.125 6 C-2.846875 5.278125 -3.56875 4.55625 -4.3125 3.8125 C-4.910625 3.214375 -5.50875 2.61625 -6.125 2 C-3.96877121 0.69086109 -2.54547902 0 0 0 Z " fill="#292A2D" transform="translate(350.125,92)"/>
<path d="M0 0 C1.32 0.33 2.64 0.66 4 1 C5.03039555 5.53374042 5.17766075 6.64467851 3 11 C0.03 10.67 -2.94 10.34 -6 10 C-6 9.67 -6 9.34 -6 9 C-3.36 9 -0.72 9 2 9 C1.484375 8.071875 0.96875 7.14375 0.4375 6.1875 C-1 3 -1 3 0 0 Z " fill="#060607" transform="translate(434,286)"/>
<path d="M0 0 C1.51400391 0.01740234 1.51400391 0.01740234 3.05859375 0.03515625 C4.07050781 0.04417969 5.08242188 0.05320312 6.125 0.0625 C7.29869141 0.07990234 7.29869141 0.07990234 8.49609375 0.09765625 C8.49609375 0.42765625 8.49609375 0.75765625 8.49609375 1.09765625 C5.85609375 1.42765625 3.21609375 1.75765625 0.49609375 2.09765625 C1.48609375 3.41765625 2.47609375 4.73765625 3.49609375 6.09765625 C3.16609375 6.75765625 2.83609375 7.41765625 2.49609375 8.09765625 C-0.47390625 7.60265625 -0.47390625 7.60265625 -3.50390625 7.09765625 C-3.54644981 5.09810879 -3.54471408 3.09723989 -3.50390625 1.09765625 C-2.50390625 0.09765625 -2.50390625 0.09765625 0 0 Z " fill="#43464D" transform="translate(319.50390625,264.90234375)"/>
<path d="M0 0 C0 0.99 0 1.98 0 3 C-0.66 3 -1.32 3 -2 3 C-1.76228882 3.86963379 -1.76228882 3.86963379 -1.51977539 4.75683594 C-0.71911382 8.21220398 -0.62776918 11.71910303 -0.4375 15.25 C-0.39431641 15.99507812 -0.35113281 16.74015625 -0.30664062 17.5078125 C-0.20103275 19.338349 -0.10005799 21.16915176 0 23 C-0.99 23.33 -1.98 23.66 -3 24 C-3 16.41 -3 8.82 -3 1 C-2.01 0.67 -1.02 0.34 0 0 Z " fill="#020306" transform="translate(237,141)"/>
<path d="M0 0 C0.639375 0.33 1.27875 0.66 1.9375 1 C2.5975 0.67 3.2575 0.34 3.9375 0 C3.2775 1.98 2.6175 3.96 1.9375 6 C0.2875 6.33 -1.3625 6.66 -3.0625 7 C-3.7225 4.69 -4.3825 2.38 -5.0625 0 C-2.0625 -1 -2.0625 -1 0 0 Z " fill="#232324" transform="translate(376.0625,285)"/>
<path d="M0 0 C1.98 0.66 3.96 1.32 6 2 C5.67 3.32 5.34 4.64 5 6 C-1.625 6.125 -1.625 6.125 -5 5 C-5 4.01 -5 3.02 -5 2 C-4.360625 1.855625 -3.72125 1.71125 -3.0625 1.5625 C-1.02454854 1.18992819 -1.02454854 1.18992819 0 0 Z " fill="#151618" transform="translate(377,276)"/>
<path d="M0 0 C2.64 0.66 5.28 1.32 8 2 C7.67 3.32 7.34 4.64 7 6 C6.34 5.67 5.68 5.34 5 5 C4.67 5.99 4.34 6.98 4 8 C2.68 7.67 1.36 7.34 0 7 C0.66 6.67 1.32 6.34 2 6 C2 5.34 2 4.68 2 4 C1.01 4.33 0.02 4.66 -1 5 C-0.67 3.35 -0.34 1.7 0 0 Z " fill="#242325" transform="translate(453,268)"/>
<path d="M0 0 C1 3 1 3 -0.3125 6 C-2 9 -2 9 -4 12 C-6 11 -6 11 -6.75 9.1875 C-7.07289658 6.36215492 -6.64278102 5.31482781 -5 3 C-2.375 1.25 -2.375 1.25 0 0 Z " fill="#1F2123" transform="translate(375,191)"/>
<path d="M0 0 C0.81210937 0.29003906 1.62421875 0.58007812 2.4609375 0.87890625 C3.27820313 1.16636719 4.09546875 1.45382813 4.9375 1.75 C5.56398438 1.97816406 6.19046875 2.20632812 6.8359375 2.44140625 C6.8359375 3.43140625 6.8359375 4.42140625 6.8359375 5.44140625 C4.1959375 5.44140625 1.5559375 5.44140625 -1.1640625 5.44140625 C-1.1640625 4.78140625 -1.1640625 4.12140625 -1.1640625 3.44140625 C-1.8240625 3.44140625 -2.4840625 3.44140625 -3.1640625 3.44140625 C-3.4940625 2.45140625 -3.8240625 1.46140625 -4.1640625 0.44140625 C-2.1640625 -0.55859375 -2.1640625 -0.55859375 0 0 Z " fill="#07090A" transform="translate(330.1640625,79.55859375)"/>
<path d="M0 0 C5.61 0.66 11.22 1.32 17 2 C17 2.33 17 2.66 17 3 C6.50588146 4.08101063 -3.51052868 3.82544266 -14 3 C-13.34 2.34 -12.68 1.68 -12 1 C-9.1796875 1.0234375 -9.1796875 1.0234375 -5.875 1.375 C-4.77929688 1.48585938 -3.68359375 1.59671875 -2.5546875 1.7109375 C-1.71164062 1.80632812 -0.86859375 1.90171875 0 2 C0 1.34 0 0.68 0 0 Z " fill="#000000" transform="translate(334,293)"/>
<path d="M0 0 C4.29 0 8.58 0 13 0 C13.25 9.625 13.25 9.625 11 13 C10.67 9.7 10.34 6.4 10 3 C6.7 2.34 3.4 1.68 0 1 C0 0.67 0 0.34 0 0 Z " fill="#545161" transform="translate(300,265)"/>
<path d="M0 0 C0.66 0.33 1.32 0.66 2 1 C1.47150259 5.66839378 1.47150259 5.66839378 0 8 C-3.22251691 9.54723494 -6.5005629 10.32206477 -10 11 C-9.67 9.68 -9.34 8.36 -9 7 C-7.02 6.67 -5.04 6.34 -3 6 C-3.66 5.34 -4.32 4.68 -5 4 C-3.35 2.68 -1.7 1.36 0 0 Z " fill="#0E0E10" transform="translate(330,220)"/>
<path d="M0 0 C0.66 0 1.32 0 2 0 C2.02698189 1.62490954 2.04638757 3.24994633 2.0625 4.875 C2.07410156 5.77992188 2.08570313 6.68484375 2.09765625 7.6171875 C2 10 2 10 1 12 C-0.32 11.34 -1.64 10.68 -3 10 C-2.69201674 8.51988629 -2.378482 7.04092675 -2.0625 5.5625 C-1.88847656 4.73878906 -1.71445312 3.91507812 -1.53515625 3.06640625 C-1 1 -1 1 0 0 Z " fill="#1B1B1C" transform="translate(363,307)"/>
<path d="M0 0 C0.33 0 0.66 0 1 0 C1.125 5.75 1.125 5.75 0 8 C0.99 8.99 1.98 9.98 3 11 C2.01 11.66 1.02 12.32 0 13 C-0.99 12.34 -1.98 11.68 -3 11 C-2.53199289 6.94393835 -2.12046792 3.53411321 0 0 Z " fill="#000101" transform="translate(453,306)"/>
<path d="M0 0 C0.66 0 1.32 0 2 0 C2.66 2.31 3.32 4.62 4 7 C4.66 7 5.32 7 6 7 C6.66 9.64 7.32 12.28 8 15 C7.34 15 6.68 15 6 15 C3 10.61538462 3 10.61538462 3 8 C2.01 8 1.02 8 0 8 C0 5.36 0 2.72 0 0 Z " fill="#000001" transform="translate(119,254)"/>
<path d="M0 0 C5.28 0 10.56 0 16 0 C16 1.32 16 2.64 16 4 C15.67 3.34 15.34 2.68 15 2 C13.2365625 2.309375 13.2365625 2.309375 11.4375 2.625 C7.09954633 3.18947526 4.09528583 2.45041373 0 1 C0 0.67 0 0.34 0 0 Z " fill="#020205" transform="translate(241,253)"/>
<path d="M0 0 C-0.8125 3.4375 -0.8125 3.4375 -2 7 C-5 8 -5 8 -8 7 C-8 5.68 -8 4.36 -8 3 C-5.12645755 0.82542733 -3.63563409 0 0 0 Z " fill="#05070A" transform="translate(274,87)"/>
<path d="M0 0 C-0.33 1.32 -0.66 2.64 -1 4 C0.65 4 2.3 4 4 4 C4 4.33 4 4.66 4 5 C-0.29 5 -4.58 5 -9 5 C-5.08474576 -1.52542373 -5.08474576 -1.52542373 0 0 Z " fill="#2D2E2E" transform="translate(286,154)"/>
<path d="M0 0 C1.32 0 2.64 0 4 0 C4.144375 0.94875 4.28875 1.8975 4.4375 2.875 C4.82935399 5.8934494 4.82935399 5.8934494 6 8 C4.02 8 2.04 8 0 8 C-0.38063221 5.6739143 -0.71269945 3.33944736 -1 1 C-0.67 0.67 -0.34 0.34 0 0 Z " fill="#222322" transform="translate(364,289)"/>
<path d="M0 0 C1.09570312 0.00902344 2.19140625 0.01804688 3.3203125 0.02734375 C4.16335937 0.03894531 5.00640625 0.05054688 5.875 0.0625 C5.875 0.3925 5.875 0.7225 5.875 1.0625 C2.245 1.0625 -1.385 1.0625 -5.125 1.0625 C-5.104375 2.01125 -5.08375 2.96 -5.0625 3.9375 C-5.125 7.0625 -5.125 7.0625 -6.125 9.0625 C-7.115 9.0625 -8.105 9.0625 -9.125 9.0625 C-8.5390625 2.91015625 -8.5390625 2.91015625 -8.125 1.0625 C-5.36047967 -0.31976016 -3.0788637 -0.03275387 0 0 Z " fill="#030408" transform="translate(203.125,253.9375)"/>
<path d="M0 0 C0.33 0.66 0.66 1.32 1 2 C0.01 2.99 -0.98 3.98 -2 5 C-1.67 5.66 -1.34 6.32 -1 7 C-1.33 7.66 -1.66 8.32 -2 9 C-2.99 9 -3.98 9 -5 9 C-5.33 8.34 -5.66 7.68 -6 7 C-8.31 7.66 -10.62 8.32 -13 9 C-10.64003075 6.22356559 -7.87037406 4.68579636 -4.71875 2.96484375 C-3.09890448 2.05552138 -1.54563654 1.03042436 0 0 Z " fill="#2B2D2C" transform="translate(371,180)"/>
<path d="M0 0 C2.64 0.33 5.28 0.66 8 1 C7.67 2.32 7.34 3.64 7 5 C6.34 5 5.68 5 5 5 C4.67 5.99 4.34 6.98 4 8 C3.34 7.67 2.68 7.34 2 7 C1.26924352 4.6859378 0.59861742 2.35171131 0 0 Z " fill="#0C0C0D" transform="translate(349,170)"/>
<path d="M0 0 C1.79236067 0.47656412 3.58386897 0.95633498 5.375 1.4375 C6.37273437 1.70433594 7.37046875 1.97117187 8.3984375 2.24609375 C11 3 11 3 13 4 C13 4.66 13 5.32 13 6 C5.10968921 6.30347349 5.10968921 6.30347349 2 4 C1.29990129 2.68391337 0.6290467 1.35148898 0 0 Z " fill="#020305" transform="translate(264,290)"/>
<path d="M0 0 C1.32 0.33 2.64 0.66 4 1 C4 8.26 4 15.52 4 23 C3.67 23 3.34 23 3 23 C2.95101562 21.72382813 2.90203125 20.44765625 2.8515625 19.1328125 C2.77653809 17.46351928 2.70099012 15.79424954 2.625 14.125 C2.57859375 12.86236328 2.57859375 12.86236328 2.53125 11.57421875 C2.49257812 10.76855469 2.45390625 9.96289062 2.4140625 9.1328125 C2.3826416 8.38918457 2.3512207 7.64555664 2.31884766 6.87939453 C2.14580449 4.75989026 2.14580449 4.75989026 0 3 C0 2.01 0 1.02 0 0 Z " fill="#07070A" transform="translate(165,261)"/>
<path d="M0 0 C2.97 0 5.94 0 9 0 C9.625 2.375 9.625 2.375 10 5 C9.34 5.66 8.68 6.32 8 7 C5.9375 6.8125 5.9375 6.8125 4 6 C3.67 5.01 3.34 4.02 3 3 C4.65 2.34 6.3 1.68 8 1 C5.36 1 2.72 1 0 1 C0 0.67 0 0.34 0 0 Z " fill="#3B3E4A" transform="translate(471,265)"/>
<path d="M0 0 C0.33 0.99 0.66 1.98 1 3 C-5.435 5.97 -5.435 5.97 -12 9 C-12 8.34 -12 7.68 -12 7 C-12.99 6.67 -13.98 6.34 -15 6 C-13.824375 5.7525 -12.64875 5.505 -11.4375 5.25 C-7.09193997 4.18103871 -3.78275934 2.36422459 0 0 Z " fill="#030406" transform="translate(288,213)"/>
<path d="M0 0 C3.65316671 1.24976756 4.78065836 1.67098753 7 5 C4.03 5.66 1.06 6.32 -2 7 C-1.34 4.69 -0.68 2.38 0 0 Z " fill="#090A0B" transform="translate(346,87)"/>
<path d="M0 0 C0.66 0 1.32 0 2 0 C1.95875 0.7425 1.9175 1.485 1.875 2.25 C2.00543093 5.11948044 2.46084023 6.60575147 4 9 C4.66 9.33 5.32 9.66 6 10 C6 10.66 6 11.32 6 12 C4.68 12.33 3.36 12.66 2 13 C1.4465236 10.92446352 1 9.15634036 1 7 C-0.45833358 5.37485532 -0.45833358 5.37485532 -2 4 C-1.34 3.67 -0.68 3.34 0 3 C0 2.01 0 1.02 0 0 Z " fill="#010103" transform="translate(492,276)"/>
<path d="M0 0 C2.97 0 5.94 0 9 0 C8.01 0.495 8.01 0.495 7 1 C6.27840576 2.64363134 5.60648579 4.31050386 5 6 C3.02 4.68 1.04 3.36 -1 2 C-0.67 1.34 -0.34 0.68 0 0 Z " fill="#0C0C0E" transform="translate(320,266)"/>
<path d="M0 0 C0.66 0.66 1.32 1.32 2 2 C3.98821313 2.39764263 5.98944339 2.73775349 8 3 C8 3.66 8 4.32 8 5 C2.55106131 6.19876651 -0.22169095 5.91360308 -5 3 C-4 1 -4 1 -2.0625 0.25 C-1.381875 0.1675 -0.70125 0.085 0 0 Z " fill="#121315" transform="translate(294,225)"/>
<path d="M0 0 C1.43739513 -0.02712066 2.87493863 -0.04645067 4.3125 -0.0625 C5.51326172 -0.07990234 5.51326172 -0.07990234 6.73828125 -0.09765625 C9 0 9 0 12 1 C11.34 2.65 10.68 4.3 10 6 C7 6 7 6 5.3125 4.5 C4.879375 4.005 4.44625 3.51 4 3 C4.66 2.67 5.32 2.34 6 2 C3.03 1.505 3.03 1.505 0 1 C0 0.67 0 0.34 0 0 Z " fill="#2F3334" transform="translate(311,219)"/>
<path d="M0 0 C0.66 0 1.32 0 2 0 C2 2.64 2 5.28 2 8 C0.68 8 -0.64 8 -2 8 C-2.66 7.01 -3.32 6.02 -4 5 C-3.01 4.34 -2.02 3.68 -1 3 C-0.67 2.01 -0.34 1.02 0 0 Z " fill="#252626" transform="translate(466,274)"/>
<path d="M0 0 C5.61 0 11.22 0 17 0 C16 2 16 2 14.1875 2.6875 C11.75353522 3.03520925 10.35995696 2.62469449 8 2 C6.96875 2.020625 5.9375 2.04125 4.875 2.0625 C2 2 2 2 0 0 Z " fill="#000002" transform="translate(121,253)"/>
<path d="M0 0 C2.64 0.66 5.28 1.32 8 2 C7.67 2.66 7.34 3.32 7 4 C6.67 4.99 6.34 5.98 6 7 C4.68 7 3.36 7 2 7 C0.5393715 4.35261084 0 3.10551666 0 0 Z " fill="#131413" transform="translate(288,280)"/>
<path d="M0 0 C1.60463449 0.31008884 3.20869231 0.62316287 4.8125 0.9375 C5.70582031 1.11152344 6.59914063 1.28554687 7.51953125 1.46484375 C10 2 10 2 13 3 C12.67 3.66 12.34 4.32 12 5 C10.33388095 5.042721 8.66617115 5.04063832 7 5 C6.67 4.67 6.34 4.34 6 4 C5.01 4.495 5.01 4.495 4 5 C3.67 4.34 3.34 3.68 3 3 C2.01 2.67 1.02 2.34 0 2 C0 1.34 0 0.68 0 0 Z " fill="#010101" transform="translate(364,135)"/>
<path d="M0 0 C1.32 0.99 2.64 1.98 4 3 C3.67 4.65 3.34 6.3 3 8 C1.68 7.67 0.36 7.34 -1 7 C-1.625 4.625 -1.625 4.625 -2 2 C-1.34 1.34 -0.68 0.68 0 0 Z " fill="#151A1B" transform="translate(373,111)"/>
<path d="M0 0 C2.9375 0.8125 2.9375 0.8125 6 2 C6.33 2.99 6.66 3.98 7 5 C5.02 5.99 5.02 5.99 3 7 C1.68 5.68 0.36 4.36 -1 3 C-0.67 2.01 -0.34 1.02 0 0 Z " fill="#070809" transform="translate(366,105)"/>
<path d="M0 0 C2.28062828 3.42094242 2.21925007 4.68187222 2.125 8.6875 C2.10695313 9.68136719 2.08890625 10.67523438 2.0703125 11.69921875 C2.03550781 12.83810547 2.03550781 12.83810547 2 14 C1.34 14 0.68 14 0 14 C-1.31164842 11.37670316 -1.13262846 9.36301375 -1.125 6.4375 C-1.12757813 5.44621094 -1.13015625 4.45492188 -1.1328125 3.43359375 C-1 1 -1 1 0 0 Z " fill="#000000" transform="translate(377,305)"/>
<path d="M0 0 C1.65 0 3.3 0 5 0 C4.01 0.66 3.02 1.32 2 2 C1.5328694 6.20417542 2.21076836 9.19788277 4 13 C2.0625 12.3125 2.0625 12.3125 0 11 C-1.39105154 7.14785727 -0.82607845 3.94681926 0 0 Z " fill="#020305" transform="translate(399,261)"/>
<path d="M0 0 C0 0.66 0 1.32 0 2 C2.31 2.33 4.62 2.66 7 3 C7 3.33 7 3.66 7 4 C4.74943278 3.88566637 2.49953326 3.75813564 0.25 3.625 C-1.00296875 3.55539063 -2.2559375 3.48578125 -3.546875 3.4140625 C-6.60998121 3.04676696 -8.41974266 2.60288714 -11 1 C-9.54182203 0.83197949 -8.0834516 0.66562857 -6.625 0.5 C-5.81289063 0.4071875 -5.00078125 0.314375 -4.1640625 0.21875 C-2 0 -2 0 0 0 Z " fill="#404247" transform="translate(307,156)"/>
<path d="M0 0 C6.13471503 3.48186528 6.13471503 3.48186528 8 6 C8.6875 9.1875 8.6875 9.1875 9 12 C8.01 11.67 7.02 11.34 6 11 C5.32558869 9.3364521 4.6599679 7.66933058 4 6 C2.68612831 4.64748503 1.35573748 3.31054623 0 2 C0 1.34 0 0.68 0 0 Z " fill="#000103" transform="translate(374,265)"/>
<path d="M0 0 C1.32 0.66 2.64 1.32 4 2 C4.33 1.34 4.66 0.68 5 0 C5.66 1.32 6.32 2.64 7 4 C6 5 6 5 3.0625 5.1875 C0 5 0 5 -2 3 C-1.34 2.01 -0.68 1.02 0 0 Z " fill="#2A3944" transform="translate(338,315)"/>
<path d="M0 0 C3.94727588 -0.17942163 6.5980513 -0.09350689 10 2 C10 2.66 10 3.32 10 4 C5.91281305 4.24042276 2.82320557 3.42258812 -1 2 C-0.67 1.34 -0.34 0.68 0 0 Z " fill="#010102" transform="translate(288,80)"/>
<path d="M0 0 C2.31 0.33 4.62 0.66 7 1 C6.67 1.99 6.34 2.98 6 4 C3.69 3.67 1.38 3.34 -1 3 C-0.67 2.01 -0.34 1.02 0 0 Z " fill="#2F302E" transform="translate(403,305)"/>
<path d="M0 0 C3.3 0.33 6.6 0.66 10 1 C5.25 5 5.25 5 1 5 C0.67 3.35 0.34 1.7 0 0 Z " fill="#090B0C" transform="translate(449,286)"/>
<path d="M0 0 C3.625 0.375 3.625 0.375 7 1 C6.34 1.66 5.68 2.32 5 3 C3.68 2.34 2.36 1.68 1 1 C0.67 2.65 0.34 4.3 0 6 C-1.32 6 -2.64 6 -4 6 C-2.84826645 3.53199953 -1.95216435 1.95216435 0 0 Z " fill="#000101" transform="translate(287,279)"/>
<path d="M0 0 C0.66 0.33 1.32 0.66 2 1 C2.99 0.67 3.98 0.34 5 0 C5 0.99 5 1.98 5 3 C1.17679443 4.42258812 -1.91281305 5.24042276 -6 5 C-5.67 4.34 -5.34 3.68 -5 3 C-4.34 3.33 -3.68 3.66 -3 4 C-2.67 3.01 -2.34 2.02 -2 1 C-1.67 1.33 -1.34 1.66 -1 2 C-0.67 1.34 -0.34 0.68 0 0 Z " fill="#06080A" transform="translate(340,220)"/>
<path d="M0 0 C0.66 0.33 1.32 0.66 2 1 C2.625 3.5625 2.625 3.5625 3 6 C-1.455 6.495 -1.455 6.495 -6 7 C-6 6.67 -6 6.34 -6 6 C-4.35 6 -2.7 6 -1 6 C-1 5.34 -1 4.68 -1 4 C-1.66 3.67 -2.32 3.34 -3 3 C-2.01 2.01 -1.02 1.02 0 0 Z " fill="#0C0D0D" transform="translate(348,134)"/>
<path d="M0 0 C1.134375 0.020625 2.26875 0.04125 3.4375 0.0625 C3.7675 1.3825 4.0975 2.7025 4.4375 4.0625 C2.77138095 4.105221 1.10367115 4.10313832 -0.5625 4.0625 C-0.8925 3.7325 -1.2225 3.4025 -1.5625 3.0625 C-2.5525 2.4025 -3.5425 1.7425 -4.5625 1.0625 C-3.5625 0.0625 -3.5625 0.0625 0 0 Z " fill="#010203" transform="translate(185.5625,303.9375)"/>
<path d="M0 0 C0.99 1.32 1.98 2.64 3 4 C-1.75 7 -1.75 7 -4 7 C-3.39816251 4.97954558 -2.72693904 2.97888961 -2 1 C-1.34 0.67 -0.68 0.34 0 0 Z " fill="#040404" transform="translate(425,280)"/>
<path d="M0 0 C0.99 0 1.98 0 3 0 C3.33 1.65 3.66 3.3 4 5 C3.34 5 2.68 5 2 5 C1.01 6.485 1.01 6.485 0 8 C-0.66 7.67 -1.32 7.34 -2 7 C-1.34 4.69 -0.68 2.38 0 0 Z " fill="#282A2A" transform="translate(388,279)"/>
<path d="M0 0 C3.38125566 4.4558465 5.31934476 7.25179435 5 13 C2 11 2 11 1.26953125 8.3984375 C1.11871094 7.40070313 0.96789062 6.40296875 0.8125 5.375 C0.65394531 4.37210937 0.49539062 3.36921875 0.33203125 2.3359375 C0.22246094 1.56507813 0.11289063 0.79421875 0 0 Z " fill="#010204" transform="translate(184,259)"/>
<path d="M0 0 C0.99 0 1.98 0 3 0 C3 0.66 3 1.32 3 2 C2.34 2 1.68 2 1 2 C1.350625 2.9075 1.70125 3.815 2.0625 4.75 C3 8 3 8 2 12 C0.68 8.7 -0.64 5.4 -2 2 C-1.34 1.34 -0.68 0.68 0 0 Z " fill="#000001" transform="translate(238,175)"/>
<path d="M0 0 C0.33 0 0.66 0 1 0 C1.19456705 1.95764383 1.38044247 3.91615321 1.5625 5.875 C1.66691406 6.96554687 1.77132813 8.05609375 1.87890625 9.1796875 C2 12 2 12 1 14 C0.34 14 -0.32 14 -1 14 C-1.08333357 9.1666528 -0.95261487 4.76307437 0 0 Z " fill="#05070A" transform="translate(389,265)"/>
<path d="M0 0 C4.19174654 1.04793663 5.21592961 1.91763635 8 5 C6.68 5.99 5.36 6.98 4 8 C2.68 5.36 1.36 2.72 0 0 Z " fill="#01020D" transform="translate(480,265)"/>
<path d="M0 0 C2 0.8125 2 0.8125 3.25 2.875 C3.4975 3.514375 3.745 4.15375 4 4.8125 C3.01 4.8125 2.02 4.8125 1 4.8125 C1 4.1525 1 3.4925 1 2.8125 C-0.65 3.1425 -2.3 3.4725 -4 3.8125 C-4 2.8225 -4 1.8325 -4 0.8125 C-2 -0.1875 -2 -0.1875 0 0 Z " fill="#101111" transform="translate(373,167.1875)"/>
<path d="M0 0 C-10.55808656 0.18451025 -10.55808656 0.18451025 -15 -1 C-15 -1.33 -15 -1.66 -15 -2 C-8.70785774 -3.08902462 -5.56394702 -2.82229197 0 0 Z " fill="#050609" transform="translate(300,159)"/>
<path d="M0 0 C2.66666667 1.33333333 5.33333333 2.66666667 8 4 C8 4.66 8 5.32 8 6 C6.35 6 4.7 6 3 6 C2.67 5.01 2.34 4.02 2 3 C1.01 2.67 0.02 2.34 -1 2 C-0.67 1.34 -0.34 0.68 0 0 Z " fill="#1E1F22" transform="translate(355,100)"/>
<path d="M0 0 C5.5952381 0.5952381 5.5952381 0.5952381 8 3 C5.35261084 4.4606285 4.10551666 5 1 5 C0.34 3.68 -0.32 2.36 -1 1 C-0.67 0.67 -0.34 0.34 0 0 Z " fill="#101010" transform="translate(289,82)"/>
<path d="M0 0 C0.66 0 1.32 0 2 0 C2.33 0.66 2.66 1.32 3 2 C5.52733235 2.65555119 5.52733235 2.65555119 8 3 C6.49336217 6.01327566 3.96833589 6.61056618 1 8 C0.67 5.36 0.34 2.72 0 0 Z " fill="#0C0C0A" transform="translate(401,308)"/>
<path d="M0 0 C0.99 0.33 1.98 0.66 3 1 C2.34 1 1.68 1 1 1 C1 1.66 1 2.32 1 3 C2.98 2.67 4.96 2.34 7 2 C7.99 3.485 7.99 3.485 9 5 C8.01 5.66 7.02 6.32 6 7 C5.67 6.01 5.34 5.02 5 4 C3.35 4 1.7 4 0 4 C-0.33 3.34 -0.66 2.68 -1 2 C-0.67 1.34 -0.34 0.68 0 0 Z " fill="#343637" transform="translate(184,305)"/>
<path d="M0 0 C0.33 0 0.66 0 1 0 C1.05389087 1.95803507 1.09274217 3.91648909 1.125 5.875 C1.14820313 6.96554687 1.17140625 8.05609375 1.1953125 9.1796875 C1 12 1 12 -1 14 C-1.99 13.34 -2.98 12.68 -4 12 C-3.67 11.34 -3.34 10.68 -3 10 C-2.01 10 -1.02 10 0 10 C0 6.7 0 3.4 0 0 Z " fill="#39393E" transform="translate(302,277)"/>
<path d="M0 0 C0.66 0.66 1.32 1.32 2 2 C0.35 2.66 -1.3 3.32 -3 4 C-4.65 2.68 -6.3 1.36 -8 0 C-4.96083486 -0.97687451 -3.01586454 -1.105817 0 0 Z " fill="#282C2D" transform="translate(379,166)"/>
<path d="M0 0 C4.75 -0.125 4.75 -0.125 7 1 C6.67 1.99 6.34 2.98 6 4 C4.0625 4.8125 4.0625 4.8125 2 5 C1.34 4.34 0.68 3.68 0 3 C0 2.01 0 1.02 0 0 Z " fill="#141619" transform="translate(361,136)"/>
<path d="M0 0 C2.64 0.33 5.28 0.66 8 1 C7.67 1.99 7.34 2.98 7 4 C4.69 3.67 2.38 3.34 0 3 C0 2.01 0 1.02 0 0 Z " fill="#1A1E20" transform="translate(291,115)"/>
<path d="M0 0 C2.475 0.495 2.475 0.495 5 1 C5.33 1.99 5.66 2.98 6 4 C5.01 4.66 4.02 5.32 3 6 C2.01 5.34 1.02 4.68 0 4 C0 2.68 0 1.36 0 0 Z " fill="#202123" transform="translate(341,105)"/>
<path d="M0 0 C1.125 1.6875 1.125 1.6875 2 4 C1.125 6.75 1.125 6.75 0 9 C-1.32 8.67 -2.64 8.34 -4 8 C-3.67 7.01 -3.34 6.02 -3 5 C-2.01 5 -1.02 5 0 5 C0 3.35 0 1.7 0 0 Z " fill="#2C2F32" transform="translate(279,309)"/>
<path d="M0 0 C0.99 0 1.98 0 3 0 C3 2.64 3 5.28 3 8 C2.34 8 1.68 8 1 8 C1 7.34 1 6.68 1 6 C0.01 6 -0.98 6 -2 6 C-2 5.34 -2 4.68 -2 4 C-1.34 4 -0.68 4 0 4 C0 2.68 0 1.36 0 0 Z " fill="#5A5E62" transform="translate(276,306)"/>
<path d="M0 0 C2.78212622 4.17318933 4.15481562 8.06975779 5 13 C2.26097751 10.63448058 1.06829908 8.45142779 0 5 C-0.125 2.1875 -0.125 2.1875 0 0 Z " fill="#000104" transform="translate(129,276)"/>
<path d="M0 0 C1.98 0 3.96 0 6 0 C5.67 1.98 5.34 3.96 5 6 C4.67 5.34 4.34 4.68 4 4 C1.97536745 3.34786708 1.97536745 3.34786708 0 3 C0 2.01 0 1.02 0 0 Z " fill="#1B1C1D" transform="translate(380,151)"/>
<path d="M0 0 C3.46941546 0.45822468 6.67395049 0.89131683 10 2 C10 2.66 10 3.32 10 4 C8.68 3.67 7.36 3.34 6 3 C5.67 3.66 5.34 4.32 5 5 C1.125 2.25 1.125 2.25 0 0 Z " fill="#282B2E" transform="translate(313,144)"/>
<path d="M0 0 C1.27450447 0.59638333 2.54446877 1.20247416 3.8125 1.8125 C4.52019531 2.14894531 5.22789062 2.48539062 5.95703125 2.83203125 C8.01129035 4.00645471 9.41616278 5.25628016 11 7 C9.68 7.33 8.36 7.66 7 8 C7 7.01 7 6.02 7 5 C6.21625 4.690625 5.4325 4.38125 4.625 4.0625 C2 3 2 3 0 2 C0 1.34 0 0.68 0 0 Z " fill="#262D34" transform="translate(309,87)"/>
<path d="M0 0 C0.33 0.99 0.66 1.98 1 3 C-2.3125 4.125 -2.3125 4.125 -6 5 C-6.99 4.34 -7.98 3.68 -9 3 C-6.03 2.01 -3.06 1.02 0 0 Z " fill="#010305" transform="translate(376,292)"/>
<path d="M0 0 C3.36720387 1.39332574 4.9859524 2.9789286 7 6 C6.67 6.66 6.34 7.32 6 8 C2.24623848 6.74874616 1.75926711 5.4347596 0 2 C0 1.34 0 0.68 0 0 Z " fill="#000001" transform="translate(290,255)"/>
<path d="M0 0 C0.6875 1.8125 0.6875 1.8125 1 4 C-0.4375 5.75 -0.4375 5.75 -2 7 C-3.65 5.35 -5.3 3.7 -7 2 C-5.02 2 -3.04 2 -1 2 C-0.67 1.34 -0.34 0.68 0 0 Z " fill="#2E2E32" transform="translate(345,87)"/>
<path d="M0 0 C2.88575819 0.39803561 3.82189513 0.79009069 5.75 3.0625 C6.1625 3.701875 6.575 4.34125 7 5 C6.67 5.66 6.34 6.32 6 7 C2.83394693 4.88929795 1.80412643 3.26460973 0 0 Z " fill="#020204" transform="translate(342,265)"/>
<path d="M0 0 C1.98 0 3.96 0 6 0 C5.01 1.485 5.01 1.485 4 3 C3.01 3 2.02 3 1 3 C0.67 2.01 0.34 1.02 0 0 Z M-3 2 C-1.68 2.33 -0.36 2.66 1 3 C0.34 3.66 -0.32 4.32 -1 5 C-1.66 4.01 -2.32 3.02 -3 2 Z " fill="#0C0D0F" transform="translate(328,216)"/>
<path d="M0 0 C0.66 0.99 1.32 1.98 2 3 C0.1875 4.5625 0.1875 4.5625 -2 6 C-2.99 5.67 -3.98 5.34 -5 5 C-4 2 -4 2 -1.9375 0.8125 C-1.298125 0.544375 -0.65875 0.27625 0 0 Z " fill="#090A0B" transform="translate(360,196)"/>
<path d="M0 0 C1.77155654 0.11429397 3.54226229 0.24183037 5.3125 0.375 C6.79169922 0.47941406 6.79169922 0.47941406 8.30078125 0.5859375 C11 1 11 1 14 3 C10.45332822 4.25127906 8.27746562 3.72285053 4.75 2.5625 C3.85796875 2.27503906 2.9659375 1.98757812 2.046875 1.69140625 C1.37140625 1.46324219 0.6959375 1.23507813 0 1 C0 0.67 0 0.34 0 0 Z " fill="#3D474D" transform="translate(279,97)"/>
<path d="M0 0 C0 0.99 0 1.98 0 3 C-1.8125 3.6875 -1.8125 3.6875 -4 4 C-5.75 2.5625 -5.75 2.5625 -7 1 C-3.375 -1.125 -3.375 -1.125 0 0 Z " fill="#0A0A0B" transform="translate(476,293)"/>
<path d="M0 0 C2.64 0 5.28 0 8 0 C8 0.33 8 0.66 8 1 C6.329375 1.4021875 6.329375 1.4021875 4.625 1.8125 C0.78159049 2.65809019 0.78159049 2.65809019 -1 6 C-1.99 5.67 -2.98 5.34 -4 5 C-3.34 5 -2.68 5 -2 5 C-1.34 3.35 -0.68 1.7 0 0 Z " fill="#636683" transform="translate(490,265)"/>
<path d="M0 0 C6.75 0.75 6.75 0.75 9 3 C7.02 3.99 7.02 3.99 5 5 C5 4.34 5 3.68 5 3 C2.525 2.01 2.525 2.01 0 1 C0 0.67 0 0.34 0 0 Z " fill="#010203" transform="translate(281,252)"/>
<path d="M0 0 C1.32 0.33 2.64 0.66 4 1 C4 2.32 4 3.64 4 5 C3.34 5 2.68 5 2 5 C2 4.34 2 3.68 2 3 C0.35 3.66 -1.3 4.32 -3 5 C-2.01 3.35 -1.02 1.7 0 0 Z " fill="#1C1C1E" transform="translate(381,172)"/>
<path d="M0 0 C2.31 0 4.62 0 7 0 C6.67 0.66 6.34 1.32 6 2 C4.68 2 3.36 2 2 2 C2 2.66 2 3.32 2 4 C1.01 3.67 0.02 3.34 -1 3 C-0.67 2.01 -0.34 1.02 0 0 Z " fill="#242526" transform="translate(367,158)"/>
<path d="M0 0 C0.99 0.33 1.98 0.66 3 1 C3.33 2.65 3.66 4.3 4 6 C3.01 6.495 3.01 6.495 2 7 C1.67 6.34 1.34 5.68 1 5 C0.01 4.34 -0.98 3.68 -2 3 C-2 2.34 -2 1.68 -2 1 C-1.34 0.67 -0.68 0.34 0 0 Z " fill="#08090A" transform="translate(355,152)"/>
<path d="M0 0 C0 0.99 0 1.98 0 3 C-2.375 4.75 -2.375 4.75 -5 6 C-5.66 5.67 -6.32 5.34 -7 5 C-2.25 0 -2.25 0 0 0 Z " fill="#000002" transform="translate(485,289)"/>
<path d="M0 0 C1.65 0 3.3 0 5 0 C5 0.66 5 1.32 5 2 C5.66 2.33 6.32 2.66 7 3 C5.02 3.99 5.02 3.99 3 5 C3 4.01 3 3.02 3 2 C2.01 1.34 1.02 0.68 0 0 Z M1 5 C1.99 5.495 1.99 5.495 3 6 C2.01 6.495 2.01 6.495 1 7 C1 6.34 1 5.68 1 5 Z " fill="#2A2B2C" transform="translate(353,170)"/>
<path d="M0 0 C0 0.99 0 1.98 0 3 C-1.65 3.66 -3.3 4.32 -5 5 C-5 4.34 -5 3.68 -5 3 C-5.66 2.67 -6.32 2.34 -7 2 C-2.25 0 -2.25 0 0 0 Z " fill="#323537" transform="translate(270,168)"/>
<path d="M0 0 C0.66 0 1.32 0 2 0 C2.66 1.65 3.32 3.3 4 5 C2.02 5 0.04 5 -2 5 C-2 2 -2 2 0 0 Z " fill="#121111" transform="translate(369,138)"/>
<path d="M0 0 C1.9375 0.6875 1.9375 0.6875 2.9375 2.6875 C0.9575 3.0175 -1.0225 3.3475 -3.0625 3.6875 C-3.3925 2.6975 -3.7225 1.7075 -4.0625 0.6875 C-2.0625 -0.3125 -2.0625 -0.3125 0 0 Z " fill="#2C2D2F" transform="translate(379.0625,130.3125)"/>
<path d="M0 0 C0.66 0 1.32 0 2 0 C2 1.65 2 3.3 2 5 C1.01 5.33 0.02 5.66 -1 6 C-1.625 4.125 -1.625 4.125 -2 2 C-1.34 1.34 -0.68 0.68 0 0 Z " fill="#071918" transform="translate(191,311)"/>
<path d="M0 0 C0.99 0.66 1.98 1.32 3 2 C2.67 2.99 2.34 3.98 2 5 C0.35 4.67 -1.3 4.34 -3 4 C-2.01 2.68 -1.02 1.36 0 0 Z " fill="#121111" transform="translate(371,267)"/>
<path d="M0 0 C3.26954202 0.56371414 4.82575883 1.49962266 7 4 C6.01 4.66 5.02 5.32 4 6 C2.68 4.02 1.36 2.04 0 0 Z " fill="#25292B" transform="translate(350,190)"/>
<path d="M0 0 C1.65 0 3.3 0 5 0 C5.33 0.99 5.66 1.98 6 3 C4.02 3.33 2.04 3.66 0 4 C0 2.68 0 1.36 0 0 Z " fill="#21222A" transform="translate(236,161)"/>
<path d="M0 0 C3.4375 0.8125 3.4375 0.8125 7 2 C7.33 2.99 7.66 3.98 8 5 C2.25 3.375 2.25 3.375 0 0 Z " fill="#3B4045" transform="translate(330,84)"/>
<path d="" fill="#000000" transform="translate(0,0)"/>
<path d="" fill="#000000" transform="translate(0,0)"/>
<path d="" fill="#000000" transform="translate(0,0)"/>
</svg>
