<?xml version="1.0" encoding="UTF-8"?>
<svg version="1.1" xmlns="http://www.w3.org/2000/svg" width="490" height="130">
<path d="M0 0 C0.70125 -0.01675781 1.4025 -0.03351562 2.125 -0.05078125 C2.74375 0.06910156 3.3625 0.18898438 4 0.3125 C5.89721241 3.15831861 6.34791281 4.31503212 6.8515625 7.54296875 C6.98046875 8.34541016 7.109375 9.14785156 7.2421875 9.97460938 C7.36851562 10.80798828 7.49484375 11.64136719 7.625 12.5 C7.82609375 13.7674707 7.82609375 13.7674707 8.03125 15.06054688 C8.36075662 17.14349945 8.68124989 19.22787427 9 21.3125 C12.22899426 21.4000127 15.45768116 21.45306146 18.6875 21.5 C20.05551758 21.53770508 20.05551758 21.53770508 21.45117188 21.57617188 C26.58861387 21.6322167 29.7319894 21.45191189 34 18.3125 C40.20110685 16.91225007 43.43530132 17.25737131 49 20.3125 C51.05742544 21.8898595 51.81650012 22.87492337 52.8125 25.25 C53.06297705 28.00524759 52.72490301 29.13762229 51 31.3125 C48.1875 32.3125 48.1875 32.3125 45 32.3125 C43.30225062 31.01897667 41.63260714 29.68732707 40 28.3125 C37.74992715 28.20703631 37.74992715 28.20703631 36 29.3125 C34.52840299 33.72729104 34.63963119 37.65480348 35.625 42.1875 C36.86849625 44.577793 36.86849625 44.577793 39.75 45.3125 C43.60760149 45.3125 45.62184487 44.07501572 49 42.3125 C51.24500075 42.55520278 52.40484992 42.71734992 54 44.3125 C54.4375 46.5625 54.4375 46.5625 54 49.3125 C49.37227796 54.05040589 45.20567492 55.96279001 38.5625 56.6875 C32.90989798 56.09248926 29.45544135 53.88284462 25.625 49.75 C22.79130606 45.49945909 22.89160604 42.12744211 22.9375 37.125 C22.94652344 35.85269531 22.95554687 34.58039062 22.96484375 33.26953125 C22.97644531 32.29371094 22.98804688 31.31789063 23 30.3125 C19.04 30.9725 15.08 31.6325 11 32.3125 C11.165 34.065625 11.33 35.81875 11.5 37.625 C11.8371925 41.87261901 12.15878346 46.11648252 12.3125 50.375 C12.36857422 51.69177734 12.36857422 51.69177734 12.42578125 53.03515625 C12 55.3125 12 55.3125 10.140625 57.08984375 C7.45228664 58.62533628 6.04188495 58.9364764 3 58.3125 C-0.64839738 53.87843289 -0.74058566 48.99827645 -1.1875 43.5 C-1.26935547 42.61634766 -1.35121094 41.73269531 -1.43554688 40.82226562 C-1.63485356 38.65333995 -1.81894537 36.48302551 -2 34.3125 C-6.29 35.3025 -10.58 36.2925 -15 37.3125 C-14.505 39.725625 -14.505 39.725625 -14 42.1875 C-12.04449492 53.06235918 -12.04449492 53.06235918 -13 58.3125 C-16.45245824 60.61413882 -17.94738713 60.65740322 -22 60.3125 C-24.30440324 58.00809676 -24.35867028 57.23569541 -24.78125 54.1015625 C-24.90113281 53.26882812 -25.02101562 52.43609375 -25.14453125 51.578125 C-25.26183594 50.70671875 -25.37914062 49.8353125 -25.5 48.9375 C-25.73320772 47.22047616 -25.97258501 45.50427662 -26.21875 43.7890625 C-26.32123047 43.02674316 -26.42371094 42.26442383 -26.52929688 41.47900391 C-27.03046801 39.17226499 -27.86154148 37.37142679 -29 35.3125 C-31.18114902 40.81730466 -32.77760244 46.20758522 -34.05859375 51.9921875 C-35 54.3125 -35 54.3125 -36.92578125 55.65625 C-39.5872602 56.49829984 -41.3451347 56.04996258 -44 55.3125 C-45.70629636 49.66859665 -46.94532852 43.98117128 -48.12109375 38.203125 C-48.99635267 35.32449566 -49.67895332 34.14864835 -52 32.3125 C-53.92114394 38.20709425 -54.36036121 43.53658999 -54.47851562 49.703125 C-54.67760237 54.83082259 -54.67760237 54.83082259 -56.3125 57.2734375 C-59.18608573 59.0428213 -61.74057601 58.66807353 -65 58.3125 C-67.49819176 54.56521235 -67.65191016 51.17713236 -68.0625 46.8125 C-68.14193848 46.00675537 -68.22137695 45.20101074 -68.30322266 44.37084961 C-68.46164452 42.76033485 -68.6176142 41.14957678 -68.77099609 39.53857422 C-68.96877095 37.61606769 -69.22327603 35.69955393 -69.48828125 33.78515625 C-69.67970703 32.34462891 -69.67970703 32.34462891 -69.875 30.875 C-69.99617188 30.05128906 -70.11734375 29.22757813 -70.2421875 28.37890625 C-70 26.3125 -70 26.3125 -68.171875 24.546875 C-65.54001506 23.05106971 -63.98323794 22.91996869 -61 23.3125 C-60.34 23.9725 -59.68 24.6325 -59 25.3125 C-58.34 24.6525 -57.68 23.9925 -57 23.3125 C-53.64088378 21.07308919 -51.86722672 20.65505627 -47.92578125 20.85546875 C-43.27791607 21.9585118 -40.6110021 26.60212859 -38 30.3125 C-37.4225 29.52875 -36.845 28.745 -36.25 27.9375 C-33.2668003 24.45710035 -31.55434721 23.54399852 -27.0625 22.875 C-22.95835258 23.46130677 -21.56131499 25.14852266 -19 28.3125 C-19 28.9725 -19 29.6325 -19 30.3125 C-18.34 30.3125 -17.68 30.3125 -17 30.3125 C-16.505 28.8275 -16.505 28.8275 -16 27.3125 C-13.56640625 26.36328125 -13.56640625 26.36328125 -10.5625 25.625 C-9.57378906 25.37363281 -8.58507812 25.12226562 -7.56640625 24.86328125 C-5 24.3125 -5 24.3125 -3 24.3125 C-3.2165625 23.3946875 -3.433125 22.476875 -3.65625 21.53125 C-6.60030015 8.55562156 -6.60030015 8.55562156 -6 2.3125 C-3.67471713 -0.01278287 -3.15334102 0.01738975 0 0 Z " fill="#FDF5F2" transform="translate(153,13.6875)"/>
<path d="M0 0 C5.4686544 3.18492794 8.7414667 6.93143135 10.7734375 13.02734375 C11.37616337 21.70891452 11.29984135 27.79565913 5.5859375 34.65234375 C-0.62628021 39.89821648 -5.19472894 41.2539472 -13.2265625 41.02734375 C-13.0821875 42.12433594 -12.9378125 43.22132812 -12.7890625 44.3515625 C-12.60139724 45.80596827 -12.41390644 47.26039656 -12.2265625 48.71484375 C-12.13117188 49.43607422 -12.03578125 50.15730469 -11.9375 50.90039062 C-10.9642613 58.51250763 -10.9642613 58.51250763 -11.2265625 62.02734375 C-12.7265625 63.83984375 -12.7265625 63.83984375 -14.2265625 65.02734375 C-13.7109375 65.41921875 -13.1953125 65.81109375 -12.6640625 66.21484375 C-12.1896875 66.81296875 -11.7153125 67.41109375 -11.2265625 68.02734375 C-11.6015625 70.65234375 -11.6015625 70.65234375 -12.2265625 73.02734375 C-11.8965625 73.35734375 -11.5665625 73.68734375 -11.2265625 74.02734375 C-10.9765625 76.96484375 -10.9765625 76.96484375 -11.2265625 80.02734375 C-14.69927805 82.34248745 -16.15396047 82.28188138 -20.2265625 82.02734375 C-21.2165625 81.69734375 -22.2065625 81.36734375 -23.2265625 81.02734375 C-24.2165625 81.52234375 -24.2165625 81.52234375 -25.2265625 82.02734375 C-26.70324587 82.12261365 -28.18431707 82.15720334 -29.6640625 82.15234375 C-30.83775391 82.15621094 -30.83775391 82.15621094 -32.03515625 82.16015625 C-34.2265625 82.02734375 -34.2265625 82.02734375 -37.2265625 81.02734375 C-37.25544396 77.71486188 -37.27332049 74.40241208 -37.2890625 71.08984375 C-37.29744141 70.14431641 -37.30582031 69.19878906 -37.31445312 68.22460938 C-37.31767578 67.32548828 -37.32089844 66.42636719 -37.32421875 65.5 C-37.32945557 64.66734619 -37.33469238 63.83469238 -37.34008789 62.97680664 C-37.2265625 61.02734375 -37.2265625 61.02734375 -36.2265625 60.02734375 C-34.20692051 59.95490322 -32.18489126 59.94357187 -30.1640625 59.96484375 C-28.50697266 59.97837891 -28.50697266 59.97837891 -26.81640625 59.9921875 C-25.96175781 60.00378906 -25.10710937 60.01539063 -24.2265625 60.02734375 C-23.8965625 61.01734375 -23.5665625 62.00734375 -23.2265625 63.02734375 C-30.1015625 64.02734375 -30.1015625 64.02734375 -31.2265625 64.02734375 C-31.5565625 65.67734375 -31.8865625 67.32734375 -32.2265625 69.02734375 C-29.9165625 69.02734375 -27.6065625 69.02734375 -25.2265625 69.02734375 C-25.7215625 71.00734375 -25.7215625 71.00734375 -26.2265625 73.02734375 C-28.2065625 73.02734375 -30.1865625 73.02734375 -32.2265625 73.02734375 C-32.2265625 74.67734375 -32.2265625 76.32734375 -32.2265625 78.02734375 C-29.2565625 78.02734375 -26.2865625 78.02734375 -23.2265625 78.02734375 C-21.97213425 74.28343574 -21.97213425 74.28343574 -22.7890625 71.52734375 C-23.2265625 69.02734375 -23.2265625 69.02734375 -22.1640625 67.08984375 C-20.93137145 65.00475117 -20.93137145 65.00475117 -22.0390625 62.66015625 C-23.73133859 57.48312744 -24.44661267 52.2116626 -25.2890625 46.83984375 C-25.63193874 44.67934107 -25.97689542 42.51916723 -26.32421875 40.359375 C-26.54863647 38.93202026 -26.54863647 38.93202026 -26.77758789 37.47583008 C-27.19042299 34.90253523 -27.19042299 34.90253523 -28.2265625 32.02734375 C-29.0928125 32.79046875 -29.9590625 33.55359375 -30.8515625 34.33984375 C-37.76002895 40.0779347 -44.65730549 41.40325892 -53.4375 41.30859375 C-58.99378496 40.74829611 -62.79835978 38.53071504 -66.6015625 34.52734375 C-68.2265625 32.02734375 -68.2265625 32.02734375 -69.2265625 29.90234375 C-70.47703814 27.55770192 -72.03904486 26.48568884 -74.2265625 25.02734375 C-74.0390625 22.21484375 -74.0390625 22.21484375 -73.2265625 19.02734375 C-71.58099684 17.99298819 -69.9095017 16.99970862 -68.2265625 16.02734375 C-67.22653993 14.74632311 -66.27172394 13.42938171 -65.3515625 12.08984375 C-61.86642271 7.27787409 -58.62121751 4.81577975 -52.8046875 3.46484375 C-47.14194334 2.64117187 -43.27921694 3.05519408 -38.2265625 6.02734375 C-32.4765625 11.15234375 -32.4765625 11.15234375 -31.8515625 15.83984375 C-32.2265625 19.02734375 -32.2265625 19.02734375 -34.1640625 21.77734375 C-40.50207664 26.43384393 -48.58679073 26.42126582 -56.2265625 27.02734375 C-56.2265625 27.68734375 -56.2265625 28.34734375 -56.2265625 29.02734375 C-49.62028632 31.52027816 -45.94644969 30.68886637 -39.44921875 28.0703125 C-37.30253189 27.21656482 -37.30253189 27.21656482 -36.2265625 26.02734375 C-34.2265625 26.02734375 -32.2265625 26.02734375 -30.2265625 26.02734375 C-29.7315625 25.53234375 -29.7315625 25.53234375 -29.2265625 25.02734375 C-29.64979547 22.766155 -30.1411837 20.51758893 -30.6640625 18.27734375 C-32.63717156 9.81863406 -32.63717156 9.81863406 -32.2265625 6.02734375 C-30.0390625 4.15234375 -30.0390625 4.15234375 -27.2265625 3.02734375 C-24.4140625 3.33984375 -24.4140625 3.33984375 -22.2265625 4.02734375 C-22.2265625 4.68734375 -22.2265625 5.34734375 -22.2265625 6.02734375 C-21.5665625 6.02734375 -20.9065625 6.02734375 -20.2265625 6.02734375 C-19.9790625 5.42921875 -19.7315625 4.83109375 -19.4765625 4.21484375 C-15.2888154 -3.11371367 -7.02075551 -3.06696162 0 0 Z M-15.2265625 12.02734375 C-16.34286457 15.37624996 -16.39421674 18.00273636 -16.4140625 21.52734375 C-16.42824219 22.67203125 -16.44242187 23.81671875 -16.45703125 24.99609375 C-16.46205307 28.2049676 -16.46205307 28.2049676 -14.2265625 31.02734375 C-9.49127884 31.57073696 -7.3311594 31.7324056 -3.2890625 29.15234375 C0.10358866 25.65688497 0.1079349 23.05407463 0.0625 18.3515625 C-0.37764675 14.8125447 -1.94751279 12.6970877 -4.2265625 10.02734375 C-9.23298812 6.68972667 -11.10583584 8.23193762 -15.2265625 12.02734375 Z M-56.2265625 16.02734375 C-52.40899426 17.40166832 -49.15400921 16.70709414 -45.2265625 16.02734375 C-45.2265625 15.36734375 -45.2265625 14.70734375 -45.2265625 14.02734375 C-50.05456066 12.79227445 -52.19764054 13.06490114 -56.2265625 16.02734375 Z M-17.2265625 69.02734375 C-17.2265625 70.01734375 -17.2265625 71.00734375 -17.2265625 72.02734375 C-16.5665625 72.02734375 -15.9065625 72.02734375 -15.2265625 72.02734375 C-15.5565625 71.03734375 -15.8865625 70.04734375 -16.2265625 69.02734375 C-16.5565625 69.02734375 -16.8865625 69.02734375 -17.2265625 69.02734375 Z M-19.2265625 76.02734375 C-18.8965625 76.68734375 -18.5665625 77.34734375 -18.2265625 78.02734375 C-17.2365625 78.02734375 -16.2465625 78.02734375 -15.2265625 78.02734375 C-15.2265625 77.36734375 -15.2265625 76.70734375 -15.2265625 76.02734375 C-16.5465625 76.02734375 -17.8665625 76.02734375 -19.2265625 76.02734375 Z " fill="#FDF6F4" transform="translate(336.2265625,29.97265625)"/>
<path d="M0 0 C2.23828125 2.625 2.23828125 2.625 4.3125 6 C5.00988281 7.11375 5.70726562 8.2275 6.42578125 9.375 C6.94527344 10.24125 7.46476562 11.1075 8 12 C8.67095703 11.41992188 8.67095703 11.41992188 9.35546875 10.828125 C22.08457143 -0.13681633 22.08457143 -0.13681633 26.625 0.1875 C29 1 29 1 31 4 C30.89557514 7.42953219 30.34666611 8.66659434 27.85546875 11.0625 C26.97503906 11.701875 26.09460938 12.34125 25.1875 13 C21.5058693 15.69732471 18.73191597 18.33197296 16 22 C18.57784846 24.64752004 20.91648098 26.94432065 24 29 C24.99 29 25.98 29 27 29 C30 29 30 29 33 31 C32.6875 34.375 32.6875 34.375 32 38 C28.25295464 40.49803024 25.33634112 40.74893629 21 40 C16.38084609 38.05980611 12.42126538 35.68028863 9 32 C5.57728808 33.45275106 3.60395439 35.31972114 1.125 38.0625 C-1.45698969 40.71167901 -2.6802981 41.89548207 -6.25 43.0625 C-9 43 -9 43 -10.890625 42.37890625 C-13.67997794 41.87785581 -14.98562396 42.62642285 -17.5 43.875 C-24.35874919 47.233908 -31.53985138 48.29132006 -39.09765625 46.50390625 C-43.28766106 44.87394834 -46.15080179 42.41903785 -49 39 C-49.67349161 37.33607955 -50.3409159 35.66967972 -51 34 C-53.01317219 32.19651922 -53.01317219 32.19651922 -55 31 C-54.67 28.69 -54.34 26.38 -54 24 C-53.21625 23.938125 -52.4325 23.87625 -51.625 23.8125 C-50.75875 23.544375 -49.8925 23.27625 -49 23 C-48.731875 22.29875 -48.46375 21.5975 -48.1875 20.875 C-45.98654226 15.54636548 -41.14329383 12.11824026 -36.125 9.5 C-30.14264956 8.54282393 -24.94785974 8.97294668 -19.5625 11.8125 C-14.2809689 16.32112411 -14.2809689 16.32112411 -13.68359375 19.890625 C-13.47998277 23.43739689 -13.58609209 25.39505767 -15.625 28.375 C-20.35609161 31.61206268 -25.24488851 32.2802993 -30.875 32.625 C-32.02742188 32.69976562 -33.17984375 32.77453125 -34.3671875 32.8515625 C-35.23601562 32.90054688 -36.10484375 32.94953125 -37 33 C-37 33.66 -37 34.32 -37 35 C-33.51263474 36.74368263 -29.81332772 36.45736174 -26 36 C-23.60384764 35.10046083 -21.36930891 34.02820582 -19.078125 32.890625 C-16.30764128 31.70327483 -13.97220678 31.71002861 -11 32 C-8.15586999 32 -7.42493791 30.72499049 -5.4375 28.75 C-4.50744141 27.84507813 -4.50744141 27.84507813 -3.55859375 26.921875 C-1.79585444 24.74827165 -1.05060603 23.80863476 -1 21 C-2.23285321 18.71791002 -3.47138151 16.68291931 -4.9375 14.5625 C-9.74774884 7.58402548 -9.74774884 7.58402548 -9 3 C-6.23948675 0.03500429 -3.96803088 -0.6790529 0 0 Z M-38 22 C-34.17907588 23.37553268 -30.91765889 22.81309902 -27 22 C-26.67 21.34 -26.34 20.68 -26 20 C-31.06604612 18.6731784 -33.52828892 19.33826722 -38 22 Z " fill="#FDF5F2" transform="translate(421,24)"/>
<path d="M0 0 C6.44930939 0.60842541 6.44930939 0.60842541 8.73046875 2.23046875 C10.99507489 5.3869813 10.05641889 8.50193646 9.63671875 12.20703125 C5.64215226 36.00288438 5.64215226 36.00288438 -2 44 C-5.53430656 46.35620437 -6.83571287 46.48991613 -11 46 C-19.45888097 41.50059523 -25.15651616 33.84921166 -30.3125 26 C-30.83650391 25.23171875 -31.36050781 24.4634375 -31.90039062 23.671875 C-34.86731304 19.20439643 -37.06235376 15.31332867 -38 10 C-36.5 7.0625 -36.5 7.0625 -34 5 C-31.18359375 4.34375 -31.18359375 4.34375 -28 5 C-25.70849512 7.53101695 -24.18601929 10.44874859 -22.5625 13.4375 C-21.60926798 15.09203843 -20.65226201 16.74440856 -19.69140625 18.39453125 C-19.23266113 19.19068848 -18.77391602 19.9868457 -18.30126953 20.80712891 C-15.95486681 24.7612357 -13.3859422 28.85328198 -10 32 C-9.01 32 -8.02 32 -7 32 C-4.53854725 24.23158529 -3.17170412 16.41934677 -2.00268555 8.37573242 C-1.88578369 7.58013916 -1.76888184 6.7845459 -1.6484375 5.96484375 C-1.54708496 5.2493335 -1.44573242 4.53382324 -1.34130859 3.79663086 C-1 2 -1 2 0 0 Z " fill="#FDF4F1" transform="translate(69,23)"/>
<path d="M0 0 C0.66 1.65 1.32 3.3 2 5 C2.86625 4.175 3.7325 3.35 4.625 2.5 C6.98607645 0.55002863 7.94369534 0.01034167 11.0625 -0.5625 C14.98092278 0.18783628 16.29175676 1.01398822 19 4 C22.88664526 10.31579854 24.73121234 17.21696646 26.375 24.375 C26.55490479 25.1479541 26.73480957 25.9209082 26.92016602 26.71728516 C27.77256442 30.7160301 28.42464335 34.03244487 27 38 C23.95699684 39.52150158 21.345915 39.23899393 18 39 C16.18159346 36.27239019 15.62735417 35.015567 15 31.9453125 C14.7525 30.77548828 14.7525 30.77548828 14.5 29.58203125 C14.2525 28.36580078 14.2525 28.36580078 14 27.125 C12.61808333 19.86817464 12.61808333 19.86817464 10 13 C9.34 12.67 8.68 12.34 8 12 C7.84180786 12.96824707 7.84180786 12.96824707 7.68041992 13.95605469 C7.19442358 16.88943683 6.69116221 19.81960168 6.1875 22.75 C6.02185547 23.76578125 5.85621094 24.7815625 5.68554688 25.828125 C5.51474609 26.8078125 5.34394531 27.7875 5.16796875 28.796875 C5.01610107 29.69760742 4.8642334 30.59833984 4.70776367 31.52636719 C3.91208361 34.30726763 3.01127814 35.92472529 1 38 C-2.5625 38.4375 -2.5625 38.4375 -6 38 C-8.2214548 34.66781779 -8.35500828 33.15361386 -8.6328125 29.23046875 C-8.71660156 28.09416016 -8.80039063 26.95785156 -8.88671875 25.78710938 C-8.96535156 24.59923828 -9.04398438 23.41136719 -9.125 22.1875 C-9.21136719 21.01123047 -9.29773438 19.83496094 -9.38671875 18.62304688 C-10.46156314 3.53257285 -10.46156314 3.53257285 -8.375 1.125 C-5.43362303 -0.26828383 -3.21666704 -0.21931821 0 0 Z " fill="#FDF5F1" transform="translate(235,29)"/>
<path d="M0 0 C1.9451 2.91765 2.45276317 4.62537285 3 8 C3 7.01 3 6.02 3 5 C3.3125 2.9375 3.3125 2.9375 4 1 C7.5486135 -1.36574234 8.5764525 -1.10865265 12.6875 -0.625 C14.17830078 -0.45871094 14.17830078 -0.45871094 15.69921875 -0.2890625 C16.45847656 -0.19367188 17.21773437 -0.09828125 18 0 C18.66 1.65 19.32 3.3 20 5 C20.66 3.35 21.32 1.7 22 0 C24.475 0.495 24.475 0.495 27 1 C27 2.65 27 4.3 27 6 C27.66 6 28.32 6 29 6 C29.33 4.02 29.66 2.04 30 0 C30.86625 0.020625 31.7325 0.04125 32.625 0.0625 C35.94583612 0.09657929 35.94583612 0.09657929 38.9375 -0.5625 C42.6294946 -1.0899278 45.38869629 -0.95392928 49 0 C50.9375 2.5625 50.9375 2.5625 52 5 C52.66 3.35 53.32 1.7 54 0 C55.32 0 56.64 0 58 0 C56.62820313 7.48252838 54.07836721 14.05604954 51 21 C49.68 20.67 48.36 20.34 47 20 C47.08378906 19.38511719 47.16757812 18.77023438 47.25390625 18.13671875 C47.35574219 17.32847656 47.45757812 16.52023438 47.5625 15.6875 C47.66691406 14.88699219 47.77132812 14.08648437 47.87890625 13.26171875 C48.14755178 10.83182884 48.14755178 10.83182884 47 8 C46.67 10.31 46.34 12.62 46 15 C44.56465159 15.2226746 43.12654475 15.42761906 41.6875 15.625 C40.48673828 15.79902344 40.48673828 15.79902344 39.26171875 15.9765625 C37 16 37 16 34 14 C33.56867485 9.94554358 33.69980639 8.45029042 36 5 C35.34 5 34.68 5 34 5 C32.68 8.3 31.36 11.6 30 15 C28.68 15 27.36 15 26 15 C25.34 13.68 24.68 12.36 24 11 C23.34 12.32 22.68 13.64 22 15 C20.125 14.875 20.125 14.875 18 14 C16.75 10.9375 16.75 10.9375 16 8 C15.67 10.31 15.34 12.62 15 15 C13.56465159 15.2226746 12.12654475 15.42761906 10.6875 15.625 C9.48673828 15.79902344 9.48673828 15.79902344 8.26171875 15.9765625 C6 16 6 16 3 14 C1.02 14.99 1.02 14.99 -1 16 C-2.73956658 14.26043342 -2.37190386 11.8063378 -2.5625 9.4375 C-2.64628906 8.42558594 -2.73007813 7.41367188 -2.81640625 6.37109375 C-2.87699219 5.58863281 -2.93757812 4.80617188 -3 4 C-3.66 4 -4.32 4 -5 4 C-5.33 7.63 -5.66 11.26 -6 15 C-7.32 15 -8.64 15 -10 15 C-10 10.05 -10 5.1 -10 0 C-3.81443299 -1.2371134 -3.81443299 -1.2371134 0 0 Z M8 3 C7.67 3.99 7.34 4.98 7 6 C7.99 6 8.98 6 10 6 C9.67 5.01 9.34 4.02 9 3 C8.67 3 8.34 3 8 3 Z M39 3 C38.67 3.99 38.34 4.98 38 6 C38.99 6 39.98 6 41 6 C41 5.01 41 4.02 41 3 C40.34 3 39.68 3 39 3 Z M8 9 C7.67 9.99 7.34 10.98 7 12 C7.99 12 8.98 12 10 12 C10 11.01 10 10.02 10 9 C9.34 9 8.68 9 8 9 Z M39 9 C38.67 9.99 38.34 10.98 38 12 C39.32 11.67 40.64 11.34 42 11 C41.67 10.34 41.34 9.68 41 9 C40.34 9 39.68 9 39 9 Z " fill="#FDF6FD" transform="translate(235,96)"/>
<path d="M0 0 C2 2 2 2 2.125 4.625 C2.08375 5.40875 2.0425 6.1925 2 7 C0.35 6.67 -1.3 6.34 -3 6 C-3 5.34 -3 4.68 -3 4 C-3.99 4.33 -4.98 4.66 -6 5 C-6 5.66 -6 6.32 -6 7 C-4.21034453 8.36277086 -4.21034453 8.36277086 -2 9.625 C-1.2575 10.07101563 -0.515 10.51703125 0.25 10.9765625 C0.8275 11.31429687 1.405 11.65203125 2 12 C2.268125 11.21625 2.53625 10.4325 2.8125 9.625 C4 7 4 7 7 5 C10.83103042 5.31925253 12.76680553 5.84453702 16 8 C16 7.34 16 6.68 16 6 C22.625 4.875 22.625 4.875 26 6 C27.4540625 5.6596875 27.4540625 5.6596875 28.9375 5.3125 C29.948125 5.209375 30.95875 5.10625 32 5 C34.375 6.9375 34.375 6.9375 36 9 C36.66 8.01 37.32 7.02 38 6 C41.5797952 5.08600973 43.46474216 4.82158072 47 6 C48.29004296 8.58008592 48.20410224 10.55741574 48.25 13.4375 C48.27578125 14.40558594 48.3015625 15.37367187 48.328125 16.37109375 C48 19 48 19 46.671875 20.8203125 C44.04645252 22.67283023 42.11188208 22.45381614 39 22 C37.125 20 37.125 20 36 18 C35.2265625 19.0209375 35.2265625 19.0209375 34.4375 20.0625 C32 22 32 22 28.3125 21.8125 C25 21 25 21 24 20 C23.92773498 18.14712498 23.9161878 16.29166122 23.9375 14.4375 C23.94652344 13.42558594 23.95554688 12.41367188 23.96484375 11.37109375 C23.97644531 10.58863281 23.98804688 9.80617188 24 9 C23.01 9.33 22.02 9.66 21 10 C20.67 13.63 20.34 17.26 20 21 C18.68 21 17.36 21 16 21 C15.67 20.34 15.34 19.68 15 19 C14.62875 19.495 14.2575 19.99 13.875 20.5 C12 22 12 22 9.0625 22.375 C5.75015327 21.96940652 4.41669703 21.23079726 2 19 C1.4740625 19.7425 1.4740625 19.7425 0.9375 20.5 C-2.02552179 22.79395236 -4.37042697 22.38888282 -8 22 C-10 20.8125 -10 20.8125 -11 19 C-10.6875 16.3125 -10.6875 16.3125 -10 14 C-7 15 -7 15 -6 17 C-5.01 17 -4.02 17 -3 17 C-3 16.01 -3 15.02 -3 14 C-3.94875 13.54625 -4.8975 13.0925 -5.875 12.625 C-9 11 -9 11 -11 9 C-11.32339354 5.96010077 -11.45670212 3.85631647 -10 1.125 C-6.66094446 -0.75321874 -3.79001126 -0.30079454 0 0 Z M8 9 C7.15545644 12.37817425 6.89155081 14.67465243 8 18 C8.99 18 9.98 18 11 18 C11 17.01 11 16.02 11 15 C12.65 15.33 14.3 15.66 16 16 C16 14.35 16 12.7 16 11 C14.35 11.33 12.7 11.66 11 12 C10.67 11.01 10.34 10.02 10 9 C9.34 9 8.68 9 8 9 Z M29 9 C28.67 9.66 28.34 10.32 28 11 C28.99 10.67 29.98 10.34 31 10 C30.34 9.67 29.68 9.34 29 9 Z M42 9 C42 9.99 42 10.98 42 12 C42.66 11.34 43.32 10.68 44 10 C43.34 9.67 42.68 9.34 42 9 Z M35 13 C36 16 36 16 36 16 Z M28 15 C28 15.99 28 16.98 28 18 C29.32 17.67 30.64 17.34 32 17 C31.67 16.34 31.34 15.68 31 15 C30.01 15 29.02 15 28 15 Z M41 15 C41 15.99 41 16.98 41 18 C41.99 18 42.98 18 44 18 C44 17.01 44 16.02 44 15 C43.01 15 42.02 15 41 15 Z " fill="#FDF8FE" transform="translate(176,90)"/>
<path d="M0 0 C1.77322979 3.93757227 2.50895867 7.57359458 3.0703125 11.84765625 C3.19924393 12.82647011 3.19924393 12.82647011 3.33078003 13.82505798 C3.51044931 15.20382709 3.68674747 16.58303922 3.85986328 17.96264648 C4.12130848 20.03326354 4.3977496 22.10147504 4.67578125 24.16992188 C7.49570724 45.75643914 7.49570724 45.75643914 4 51 C1.0625 51.875 1.0625 51.875 -2 52 C-4.49153731 50.3053648 -4.96711514 49.13680055 -5.67602539 46.18774414 C-5.81516357 45.06489014 -5.95430176 43.94203613 -6.09765625 42.78515625 C-6.25943359 41.54056641 -6.42121094 40.29597656 -6.58789062 39.01367188 C-6.74451172 37.70978516 -6.90113281 36.40589844 -7.0625 35.0625 C-7.38509812 32.51151328 -7.70930064 29.96072891 -8.03515625 27.41015625 C-8.19129395 26.16508301 -8.34743164 24.92000977 -8.50830078 23.63720703 C-9.09535678 19.29462494 -9.83298811 14.98980595 -10.63061523 10.68139648 C-11.0367145 7.73348619 -11.16303047 4.97184976 -11 2 C-7.8024827 -1.96492145 -4.62667537 -0.97871979 0 0 Z " fill="#FDF4F2" transform="translate(358,15)"/>
<path d="M0 0 C4.91481514 4.91481514 3.2177988 16.81612814 3.25 23.4375 C3.270625 24.52482422 3.29125 25.61214844 3.3125 26.73242188 C3.31765625 27.76818359 3.3228125 28.80394531 3.328125 29.87109375 C3.34214355 31.27766235 3.34214355 31.27766235 3.35644531 32.71264648 C3.23881836 33.46747314 3.12119141 34.2222998 3 35 C-0.45245824 37.30163882 -1.94738713 37.34490322 -6 37 C-8.85051619 34.14948381 -8.46489714 31.20817496 -8.625 27.375 C-8.66004639 26.62460449 -8.69509277 25.87420898 -8.73120117 25.10107422 C-8.83338048 22.73437385 -8.91697448 20.36744125 -9 18 C-9.03399902 17.23494141 -9.06799805 16.46988281 -9.10302734 15.68164062 C-9.19605914 13.4961017 -9.25931087 11.31183305 -9.3125 9.125 C-9.34988281 7.82820313 -9.38726562 6.53140625 -9.42578125 5.1953125 C-9 2 -9 2 -7.14453125 0.04296875 C-4.32571924 -1.32792889 -2.92686301 -1.00129524 0 0 Z " fill="#FDF5F2" transform="translate(216,33)"/>
<path d="M0 0 C0.66 0.99 1.32 1.98 2 3 C2.53625 2.319375 3.0725 1.63875 3.625 0.9375 C6 -1 6 -1 9.125 -0.9375 C12 0 12 0 14 3 C14.57597403 7.06173896 14.53099197 10.7905183 12.875 14.5625 C11 16 11 16 8.0625 16.4375 C4.78325857 15.96903694 3.40134932 15.21663014 1 13 C0.38125 13.7425 0.38125 13.7425 -0.25 14.5 C-2 16 -2 16 -6 16 C-6.33 17.65 -6.66 19.3 -7 21 C-7.99 21 -8.98 21 -10 21 C-11 20 -11 20 -11.11352539 18.14233398 C-11.10828857 17.35157471 -11.10305176 16.56081543 -11.09765625 15.74609375 C-11.09443359 14.89208984 -11.09121094 14.03808594 -11.08789062 13.15820312 C-11.07951172 12.26037109 -11.07113281 11.36253906 -11.0625 10.4375 C-11.05798828 9.53580078 -11.05347656 8.63410156 -11.04882812 7.70507812 C-11.03700225 5.46998686 -11.0205222 3.23502563 -11 1 C-6.83435851 -0.83175067 -4.45985857 -1.28840359 0 0 Z M-5 3 C-6.20561184 3.98267859 -6.20561184 3.98267859 -6.09765625 5.84765625 C-6.08605469 6.57855469 -6.07445312 7.30945313 -6.0625 8.0625 C-6.041875 9.361875 -6.02125 10.66125 -6 12 C-5.01 12 -4.02 12 -3 12 C-3 9.36 -3 6.72 -3 4 C-3.66 3.67 -4.32 3.34 -5 3 Z M7 3 C6.67 3.66 6.34 4.32 6 5 C7.32 4.67 8.64 4.34 10 4 C9.01 3.67 8.02 3.34 7 3 Z M7 9 C6.67 9.99 6.34 10.98 6 12 C7.32 11.67 8.64 11.34 10 11 C10 10.34 10 9.68 10 9 C9.01 9 8.02 9 7 9 Z " fill="#FDF7FE" transform="translate(362,96)"/>
<path d="M0 0 C0.66 0.66 1.32 1.32 2 2 C1.625 4.625 1.625 4.625 1 7 C0.01 6.67 -0.98 6.34 -2 6 C-2.33 5.34 -2.66 4.68 -3 4 C-3.66 4 -4.32 4 -5 4 C-5.33 6.64 -5.66 9.28 -6 12 C-5.01 11.67 -4.02 11.34 -3 11 C-2.67 10.34 -2.34 9.68 -2 9 C-0.35 9.33 1.3 9.66 3 10 C2.938125 8.741875 2.87625 7.48375 2.8125 6.1875 C2.83081347 3.60530019 2.86838891 2.25548035 4.0625 -0.0625 C7.17113981 -1.56668055 9.72555538 -0.72765436 13 0 C14 1 14 1 14.09765625 4.16015625 C14.08605469 5.44792969 14.07445312 6.73570313 14.0625 8.0625 C14.05347656 9.35285156 14.04445313 10.64320312 14.03515625 11.97265625 C14.02355469 12.97167969 14.01195312 13.97070312 14 15 C6.61538462 16.35384615 6.61538462 16.35384615 3.5 14.5625 C3.005 14.046875 2.51 13.53125 2 13 C1.62875 13.495 1.2575 13.99 0.875 14.5 C-1 16 -1 16 -4 16.375 C-7 16 -7 16 -8.66015625 14.8203125 C-10.49557542 12.32671095 -10.43337206 10.57119046 -10.4375 7.5 C-10.45683594 6.5409375 -10.47617187 5.581875 -10.49609375 4.59375 C-10 2 -10 2 -8.16796875 0.14453125 C-5.11170569 -1.46895538 -3.26046244 -0.92143504 0 0 Z M8 3 C7.67 3.99 7.34 4.98 7 6 C7.99 6 8.98 6 10 6 C10 5.01 10 4.02 10 3 C9.34 3 8.68 3 8 3 Z M8 9 C7.67 9.99 7.34 10.98 7 12 C7.99 12 8.98 12 10 12 C10 11.01 10 10.02 10 9 C9.34 9 8.68 9 8 9 Z " fill="#FDF7FE" transform="translate(336,96)"/>
<path d="M0 0 C-1.375 1.5 -1.375 1.5 -3 3 C-3.66 3 -4.32 3 -5 3 C-5 6.63 -5 10.26 -5 14 C-7.58753156 15.29376578 -9.54958985 15.16832397 -12.4375 15.1875 C-13.40558594 15.20167969 -14.37367188 15.21585938 -15.37109375 15.23046875 C-18 15 -18 15 -21 13 C-21.51171875 9.9609375 -21.51171875 9.9609375 -21.6875 6.375 C-21.75324219 5.18648438 -21.81898438 3.99796875 -21.88671875 2.7734375 C-21.92410156 1.85820313 -21.96148437 0.94296875 -22 0 C-20.35 -0.33 -18.7 -0.66 -17 -1 C-17 2.96 -17 6.92 -17 11 C-16.01 11 -15.02 11 -14 11 C-14 7.04 -14 3.08 -14 -1 C-3.82142857 -2.33928571 -3.82142857 -2.33928571 0 0 Z " fill="#FDF8FE" transform="translate(159,97)"/>
<path d="M0 0 C2.875 0.9375 2.875 0.9375 4.25 2.5 C5.15938393 6.04659733 5.46137618 9.30790564 4.875 12.9375 C3.3125 15.5 3.3125 15.5 0.875 16.9375 C-5.44642857 16.61607143 -5.44642857 16.61607143 -7.125 14.9375 C-7.30281263 12.98447598 -7.39283421 11.02309305 -7.4375 9.0625 C-7.47488281 7.99257812 -7.51226562 6.92265625 -7.55078125 5.8203125 C-7.125 2.9375 -7.125 2.9375 -5.30078125 1.05078125 C-3.125 -0.0625 -3.125 -0.0625 0 0 Z M-2.125 3.9375 C-3.33061184 4.92017859 -3.33061184 4.92017859 -3.22265625 6.78515625 C-3.21105469 7.51605469 -3.19945312 8.24695313 -3.1875 9 C-3.166875 10.299375 -3.14625 11.59875 -3.125 12.9375 C-1.805 12.6075 -0.485 12.2775 0.875 11.9375 C1.08470559 7.79656302 1.08470559 7.79656302 -0.125 3.9375 C-0.785 3.9375 -1.445 3.9375 -2.125 3.9375 Z " fill="#FEF5FD" transform="translate(132.125,95.0625)"/>
<path d="M0 0 C2.375 0.25 2.375 0.25 5 1 C6.3125 3.0625 6.3125 3.0625 7 5 C7.4125 4.175 7.825 3.35 8.25 2.5 C8.8275 1.675 9.405 0.85 10 0 C11.32 0 12.64 0 14 0 C13.53525658 3.06730657 12.81030412 5.41100774 11.5 8.25 C9.63215654 12.37747848 9.29468496 16.51875634 9 21 C7.68 21 6.36 21 5 21 C4.97421875 20.29875 4.9484375 19.5975 4.921875 18.875 C4.5230575 12.20387098 3.27239834 7.80586802 0 2 C0 1.34 0 0.68 0 0 Z " fill="#FEF5FE" transform="translate(112,90)"/>
<path d="M0 0 C3.625 0.375 3.625 0.375 6.125 2.0625 C7.625 4.375 7.625 4.375 7.5625 7 C6.625 9.375 6.625 9.375 3.625 11.375 C0.18231738 11.19057057 -2.42260869 10.97024457 -5.375 9.125 C-6.375 7.375 -6.375 7.375 -6.1875 4.8125 C-4.91395963 0.9918789 -4.02490382 0.44721154 0 0 Z " fill="#FDF2F4" transform="translate(212.375,14.625)"/>
<path d="M0 0 C-2 2 -2 2 -5 2.875 C-8.10488746 3.69978825 -8.10488746 3.69978825 -9.375 6.125 C-9.58125 6.74375 -9.7875 7.3625 -10 8 C-10.99 8 -11.98 8 -13 8 C-12.06601394 4.85841051 -11.33205059 3.2674852 -8.75 1.1875 C-5.62298529 -0.16280181 -3.3717092 -0.23523553 0 0 Z " fill="#FEECF7" transform="translate(129,37)"/>
<path d="M0 0 C0.33 0 0.66 0 1 0 C1.05391993 1.79133978 1.09275571 3.58313899 1.125 5.375 C1.14820313 6.37273437 1.17140625 7.37046875 1.1953125 8.3984375 C1 11 1 11 -1 13 C-1.99 12.67 -2.98 12.34 -4 12 C-3.01 11.67 -2.02 11.34 -1 11 C-1.20625 10.484375 -1.4125 9.96875 -1.625 9.4375 C-2.15887026 5.96734329 -1.07676761 3.29364209 0 0 Z " fill="#FEE9F5" transform="translate(164,58)"/>
<path d="M0 0 C0 0.66 0 1.32 0 2 C-0.78375 1.938125 -1.5675 1.87625 -2.375 1.8125 C-3.674375 1.9053125 -3.674375 1.9053125 -5 2 C-6.9451 4.91765 -7.45276317 6.62537285 -8 10 C-8.66 9.67 -9.32 9.34 -10 9 C-10.25 6.1875 -10.25 6.1875 -10 3 C-7.05843777 -0.39411027 -4.30855278 -0.29376496 0 0 Z " fill="#FEEBF7" transform="translate(235,29)"/>
<path d="M0 0 C1.43836751 0.11458693 2.87570966 0.24209116 4.3125 0.375 C5.51326172 0.47941406 5.51326172 0.47941406 6.73828125 0.5859375 C9 1 9 1 12 3 C11.67 5.31 11.34 7.62 11 10 C10 7 10 7 11 4 C7.37 3.67 3.74 3.34 0 3 C0 2.01 0 1.02 0 0 Z " fill="#FEECF8" transform="translate(442,52)"/>
<path d="M0 0 C2 2 2 2 2.375 5.875 C2.30091117 9.01522643 2.13506171 9.81836528 0.1875 12.4375 C-2 14 -2 14 -5 15 C-5 14.34 -5 13.68 -5 13 C-4.154375 12.21625 -3.30875 11.4325 -2.4375 10.625 C-1.633125 9.75875 -0.82875 8.8925 0 8 C-0.16666667 5.91666667 -0.16666667 5.91666667 -1 4 C-0.5625 1.75 -0.5625 1.75 0 0 Z " fill="#FFEDF7" transform="translate(405,40)"/>
<path d="M0 0 C2.35729943 2.19138979 4.02057098 4.43931973 5.6875 7.1875 C6.12449219 7.90292969 6.56148438 8.61835937 7.01171875 9.35546875 C7.33785156 9.89816406 7.66398437 10.44085938 8 11 C4.35580428 10.01508224 3.21085868 9.34173648 1.1875 6.0625 C0 3 0 3 0 0 Z " fill="#FFEFFA" transform="translate(422,27)"/>
<path d="M0 0 C0 0.99 0 1.98 0 3 C-0.99 2.67 -1.98 2.34 -3 2 C-6.1668838 3.37492804 -6.1668838 3.37492804 -9 5 C-6.81610567 0.16423399 -5.20641855 -0.13701101 0 0 Z " fill="#FFECF7" transform="translate(92,37)"/>
<path d="M0 0 C0.66 0.33 1.32 0.66 2 1 C2.4140625 3.06640625 2.4140625 3.06640625 2.625 5.5625 C2.69976562 6.38878906 2.77453125 7.21507812 2.8515625 8.06640625 C2.92503906 9.02353516 2.92503906 9.02353516 3 10 C1 9 1 9 0.33203125 7.1875 C0.16058594 6.465625 -0.01085937 5.74375 -0.1875 5 C-0.36667969 4.278125 -0.54585937 3.55625 -0.73046875 2.8125 C-0.86388672 1.9153125 -0.86388672 1.9153125 -1 1 C-0.67 0.67 -0.34 0.34 0 0 Z " fill="#FEECF4" transform="translate(185,45)"/>
</svg>
